<svg width="89" height="72" viewBox="0 0 89 72" fill="none" xmlns="http://www.w3.org/2000/svg">
<g clip-path="url(#clip0_0_1237)">
<path d="M40.4578 19.9526C32.54 17.057 28.5669 33.8287 22.4084 40.9927C16.4361 47.9401 3.92524 42.3216 2.15329 53.354C0.312779 64.8129 9.17338 64.7225 25.1955 66.2878C37.6853 67.5079 45.9737 54.8285 47.0715 45.0294C47.7823 38.6859 47.2437 22.4349 40.4578 19.9526Z" fill="#FF5B6B"/>
<path opacity="0.82" d="M23.0813 6.15719C20.2867 9.809 20.6087 15.1701 26.9544 21.6552C34.9114 29.7873 46.6611 27.1265 50.3122 21.3214C53.5733 16.1369 49.9179 9.407 43.9422 4.52061C36.5473 -1.52584 26.4248 1.78806 23.0813 6.15719Z" fill="#FFC157"/>
<path d="M43.7181 34.0082L49.4754 39.7658C50.456 40.7463 52.0458 40.7463 53.0264 39.7658L57.0082 35.7837C57.9887 34.8032 59.5786 34.8032 60.5591 35.7837L68.8274 44.0523M68.8274 44.0523V37.7747M68.8274 44.0523H62.5501" stroke="black" stroke-width="4.01749" stroke-linecap="round" stroke-linejoin="round"/>
<path d="M66.3165 21.4528C66.3165 23.4508 67.1102 25.3669 68.5228 26.7796C69.9355 28.1923 71.8515 28.986 73.8493 28.986C75.8471 28.986 77.7631 28.1923 79.1758 26.7796C80.5884 25.3669 81.3825 23.4508 81.3825 21.4528C81.3825 19.4549 80.5884 17.5388 79.1758 16.1261C77.7631 14.7133 75.8471 13.9197 73.8493 13.9197C71.8515 13.9197 69.9355 14.7133 68.5228 16.1261C67.1102 17.5388 66.3165 19.4549 66.3165 21.4528Z" stroke="black" stroke-width="4.01749"/>
<path d="M81.3824 35.2636V39.0302C81.3824 50.8674 81.3824 56.7862 77.7048 60.4634C74.0278 64.1408 68.1093 64.1408 56.2727 64.1408C44.4361 64.1408 38.5178 64.1408 34.8406 60.4634C31.1634 56.7862 31.1634 50.8674 31.1634 39.0302C31.1634 36.197 31.1634 33.7027 31.2138 31.497M60.0392 13.9197H56.2727C44.4361 13.9197 38.5178 13.9196 34.8406 17.597C33.7335 18.7041 32.9597 20.0145 32.4189 21.6283" stroke="black" stroke-width="4.01749" stroke-linecap="round"/>
</g>
<defs>
<clipPath id="clip0_0_1237">
<rect width="87.7969" height="70.5547" fill="white" transform="translate(0.625 0.617188)"/>
</clipPath>
</defs>
</svg>
