<svg width="305" height="95" viewBox="0 0 305 95" fill="none" xmlns="http://www.w3.org/2000/svg">
<path d="M0.171875 30.1875C0.171875 13.619 13.6033 0.1875 30.1719 0.1875H274.172C290.74 0.1875 304.172 13.619 304.172 30.1875V64.1875C304.172 80.756 290.74 94.1875 274.172 94.1875H30.1719C13.6033 94.1875 0.171875 80.756 0.171875 64.1875V30.1875Z" fill="#131313"/>
<path d="M0.671875 30.1875C0.671875 13.8951 13.8795 0.6875 30.1719 0.6875H274.172C290.464 0.6875 303.672 13.8951 303.672 30.1875V64.1875C303.672 80.4799 290.464 93.6875 274.172 93.6875H30.1719C13.8795 93.6875 0.671875 80.4799 0.671875 64.1875V30.1875Z" stroke="#292929"/>
<path d="M131.14 39.9948C131.053 39.2564 130.698 38.6831 130.077 38.2751C129.455 37.867 128.692 37.663 127.788 37.663C127.128 37.663 126.55 37.7698 126.054 37.9836C125.563 38.1973 125.18 38.4912 124.903 38.8653C124.631 39.2394 124.495 39.6644 124.495 40.1405C124.495 40.5389 124.589 40.8813 124.779 41.168C124.973 41.4497 125.221 41.6853 125.522 41.8748C125.823 42.0594 126.139 42.2124 126.469 42.3339C126.8 42.4505 127.103 42.5452 127.38 42.6181L128.896 43.0261C129.285 43.1282 129.717 43.269 130.193 43.4488C130.674 43.6285 131.133 43.8738 131.57 44.1848C132.012 44.4908 132.377 44.8843 132.663 45.3652C132.95 45.8462 133.093 46.4364 133.093 47.136C133.093 47.9424 132.882 48.6711 132.459 49.322C132.042 49.973 131.429 50.4904 130.623 50.8742C129.821 51.2579 128.847 51.4498 127.701 51.4498C126.632 51.4498 125.707 51.2774 124.925 50.9325C124.147 50.5875 123.535 50.1066 123.088 49.4896C122.646 48.8727 122.396 48.1561 122.338 47.34H124.203C124.252 47.9035 124.441 48.3699 124.772 48.7391C125.107 49.1034 125.529 49.3755 126.04 49.5552C126.554 49.7301 127.108 49.8176 127.701 49.8176C128.391 49.8176 129.01 49.7058 129.559 49.4824C130.108 49.254 130.543 48.9383 130.863 48.5351C131.184 48.127 131.344 47.6509 131.344 47.1068C131.344 46.6113 131.206 46.2081 130.929 45.8972C130.652 45.5863 130.288 45.3337 129.836 45.1393C129.384 44.945 128.896 44.775 128.371 44.6293L126.535 44.1046C125.369 43.7694 124.446 43.2909 123.766 42.6691C123.086 42.0473 122.746 41.2336 122.746 40.228C122.746 39.3924 122.972 38.6637 123.424 38.0419C123.88 37.4152 124.492 36.9294 125.26 36.5845C126.032 36.2347 126.895 36.0598 127.847 36.0598C128.809 36.0598 129.664 36.2323 130.412 36.5772C131.16 36.9173 131.753 37.3836 132.19 37.9763C132.632 38.569 132.865 39.2418 132.889 39.9948H131.14ZM138.509 51.4498C137.8 51.4498 137.157 51.3162 136.578 51.049C136 50.777 135.541 50.3859 135.201 49.8759C134.861 49.3609 134.691 48.7391 134.691 48.0104C134.691 47.3691 134.817 46.8493 135.07 46.451C135.323 46.0478 135.66 45.732 136.083 45.5037C136.506 45.2754 136.972 45.1053 137.482 44.9936C137.997 44.877 138.514 44.7847 139.034 44.7167C139.714 44.6293 140.266 44.5637 140.688 44.52C141.116 44.4714 141.427 44.3912 141.621 44.2795C141.82 44.1678 141.92 43.9734 141.92 43.6965V43.6382C141.92 42.9193 141.723 42.3606 141.329 41.9622C140.941 41.5639 140.351 41.3647 139.559 41.3647C138.738 41.3647 138.094 41.5445 137.628 41.9039C137.161 42.2634 136.833 42.6472 136.644 43.0553L135.012 42.4723C135.303 41.7922 135.692 41.2627 136.178 40.8838C136.668 40.5 137.203 40.2328 137.781 40.0822C138.364 39.9268 138.937 39.849 139.5 39.849C139.86 39.849 140.273 39.8928 140.739 39.9802C141.21 40.0628 141.665 40.2352 142.102 40.4976C142.544 40.7599 142.911 41.1558 143.202 41.6853C143.494 42.2149 143.639 42.9241 143.639 43.8131V51.1875H141.92V49.6718H141.832C141.716 49.9147 141.521 50.1746 141.249 50.4515C140.977 50.7284 140.615 50.964 140.164 51.1584C139.712 51.3527 139.16 51.4498 138.509 51.4498ZM138.772 49.905C139.452 49.905 140.025 49.7714 140.492 49.5042C140.963 49.237 141.317 48.8921 141.555 48.4695C141.798 48.0468 141.92 47.6023 141.92 47.136V45.562C141.847 45.6494 141.687 45.7296 141.439 45.8025C141.196 45.8705 140.914 45.9312 140.594 45.9846C140.278 46.0332 139.969 46.0769 139.668 46.1158C139.372 46.1498 139.131 46.1789 138.947 46.2032C138.5 46.2615 138.082 46.3563 137.693 46.4874C137.31 46.6137 136.999 46.8056 136.761 47.0631C136.527 47.3157 136.411 47.6606 136.411 48.0978C136.411 48.6954 136.632 49.1472 137.074 49.4532C137.521 49.7544 138.087 49.905 138.772 49.905ZM147.882 36.2639V51.1875H146.163V36.2639H147.882ZM153.71 51.4498C153.001 51.4498 152.357 51.3162 151.779 51.049C151.201 50.777 150.742 50.3859 150.402 49.8759C150.062 49.3609 149.892 48.7391 149.892 48.0104C149.892 47.3691 150.018 46.8493 150.271 46.451C150.523 46.0478 150.861 45.732 151.284 45.5037C151.706 45.2754 152.173 45.1053 152.683 44.9936C153.198 44.877 153.715 44.7847 154.235 44.7167C154.915 44.6293 155.466 44.5637 155.889 44.52C156.317 44.4714 156.627 44.3912 156.822 44.2795C157.021 44.1678 157.121 43.9734 157.121 43.6965V43.6382C157.121 42.9193 156.924 42.3606 156.53 41.9622C156.142 41.5639 155.551 41.3647 154.76 41.3647C153.939 41.3647 153.295 41.5445 152.829 41.9039C152.362 42.2634 152.034 42.6472 151.845 43.0553L150.213 42.4723C150.504 41.7922 150.893 41.2627 151.378 40.8838C151.869 40.5 152.403 40.2328 152.982 40.0822C153.565 39.9268 154.138 39.849 154.701 39.849C155.061 39.849 155.474 39.8928 155.94 39.9802C156.411 40.0628 156.866 40.2352 157.303 40.4976C157.745 40.7599 158.112 41.1558 158.403 41.6853C158.695 42.2149 158.84 42.9241 158.84 43.8131V51.1875H157.121V49.6718H157.033C156.917 49.9147 156.722 50.1746 156.45 50.4515C156.178 50.7284 155.816 50.964 155.364 51.1584C154.913 51.3527 154.361 51.4498 153.71 51.4498ZM153.973 49.905C154.653 49.905 155.226 49.7714 155.692 49.5042C156.164 49.237 156.518 48.8921 156.756 48.4695C156.999 48.0468 157.121 47.6023 157.121 47.136V45.562C157.048 45.6494 156.887 45.7296 156.64 45.8025C156.397 45.8705 156.115 45.9312 155.794 45.9846C155.479 46.0332 155.17 46.0769 154.869 46.1158C154.573 46.1498 154.332 46.1789 154.148 46.2032C153.701 46.2615 153.283 46.3563 152.894 46.4874C152.51 46.6137 152.199 46.8056 151.961 47.0631C151.728 47.3157 151.612 47.6606 151.612 48.0978C151.612 48.6954 151.833 49.1472 152.275 49.4532C152.722 49.7544 153.288 49.905 153.973 49.905ZM161.364 51.1875V39.9948H163.025V41.6853H163.142C163.346 41.1315 163.715 40.6822 164.249 40.3373C164.784 39.9923 165.386 39.8199 166.056 39.8199C166.183 39.8199 166.341 39.8223 166.53 39.8272C166.719 39.832 166.863 39.8393 166.96 39.849V41.5979C166.902 41.5833 166.768 41.5615 166.559 41.5323C166.355 41.4983 166.139 41.4813 165.911 41.4813C165.366 41.4813 164.881 41.5955 164.453 41.8238C164.031 42.0473 163.695 42.3582 163.448 42.7565C163.205 43.15 163.083 43.5994 163.083 44.1046V51.1875H161.364ZM169.831 55.3848C169.54 55.3848 169.28 55.3605 169.051 55.3119C168.823 55.2682 168.665 55.2245 168.578 55.1807L169.015 53.6651C169.433 53.7719 169.802 53.8108 170.123 53.7816C170.443 53.7525 170.727 53.6092 170.975 53.3517C171.228 53.0991 171.459 52.6886 171.667 52.1202L171.988 51.2458L167.849 39.9948H169.715L172.804 48.914H172.921L176.01 39.9948H177.876L173.125 52.8198C172.911 53.3979 172.646 53.8764 172.331 54.2553C172.015 54.6391 171.648 54.9233 171.23 55.1079C170.817 55.2925 170.351 55.3848 169.831 55.3848ZM189.524 51.1875H184.919V36.2639H189.728C191.176 36.2639 192.415 36.5626 193.445 37.1602C194.475 37.7528 195.264 38.6054 195.813 39.7179C196.362 40.8255 196.636 42.1517 196.636 43.6965C196.636 45.2511 196.359 46.5894 195.806 47.7116C195.252 48.829 194.445 49.6888 193.386 50.2912C192.327 50.8887 191.04 51.1875 189.524 51.1875ZM186.726 49.5844H189.408C190.642 49.5844 191.664 49.3463 192.476 48.8703C193.287 48.3942 193.892 47.7165 194.29 46.8372C194.688 45.9579 194.887 44.911 194.887 43.6965C194.887 42.4918 194.691 41.4546 194.297 40.585C193.904 39.7106 193.316 39.0402 192.534 38.5738C191.752 38.1026 190.778 37.867 189.612 37.867H186.726V49.5844ZM198.819 51.1875V39.9948H200.539V51.1875H198.819ZM199.693 38.1293C199.358 38.1293 199.069 38.0152 198.826 37.7868C198.588 37.5585 198.469 37.284 198.469 36.9634C198.469 36.6428 198.588 36.3683 198.826 36.14C199.069 35.9117 199.358 35.7975 199.693 35.7975C200.029 35.7975 200.315 35.9117 200.553 36.14C200.796 36.3683 200.918 36.6428 200.918 36.9634C200.918 37.284 200.796 37.5585 200.553 37.7868C200.315 38.0152 200.029 38.1293 199.693 38.1293ZM211.001 42.5015L209.456 42.9387C209.359 42.6812 209.216 42.431 209.026 42.1881C208.842 41.9404 208.589 41.7363 208.268 41.576C207.948 41.4157 207.537 41.3356 207.037 41.3356C206.352 41.3356 205.781 41.4935 205.325 41.8092C204.873 42.1201 204.647 42.5161 204.647 42.997C204.647 43.4245 204.802 43.7621 205.113 44.0099C205.424 44.2576 205.91 44.4641 206.571 44.6293L208.232 45.0373C209.233 45.2802 209.978 45.6519 210.469 46.1522C210.96 46.6477 211.205 47.2866 211.205 48.0687C211.205 48.7099 211.02 49.2832 210.651 49.7884C210.287 50.2936 209.777 50.692 209.121 50.9835C208.465 51.2749 207.702 51.4207 206.833 51.4207C205.691 51.4207 204.746 51.1729 203.998 50.6774C203.25 50.1819 202.777 49.4581 202.577 48.5059L204.21 48.0978C204.365 48.7002 204.659 49.152 205.091 49.4532C205.529 49.7544 206.099 49.905 206.804 49.905C207.605 49.905 208.242 49.735 208.713 49.3949C209.189 49.05 209.427 48.6371 209.427 48.1561C209.427 47.7675 209.291 47.442 209.019 47.1797C208.747 46.9125 208.329 46.7133 207.766 46.5822L205.9 46.1449C204.875 45.902 204.122 45.5256 203.641 45.0155C203.165 44.5005 202.927 43.8568 202.927 43.0844C202.927 42.4529 203.104 41.8942 203.459 41.4084C203.819 40.9226 204.307 40.5413 204.924 40.2644C205.546 39.9875 206.25 39.849 207.037 39.849C208.145 39.849 209.014 40.0919 209.646 40.5777C210.282 41.0635 210.734 41.7048 211.001 42.5015ZM213.411 51.1875V36.2639H215.131V41.7728H215.277C215.403 41.5785 215.578 41.3307 215.801 41.0295C216.03 40.7235 216.355 40.4514 216.778 40.2134C217.205 39.9705 217.783 39.849 218.512 39.849C219.455 39.849 220.285 40.0846 221.004 40.5559C221.723 41.0271 222.284 41.6951 222.688 42.5598C223.091 43.4245 223.292 44.4447 223.292 45.6203C223.292 46.8056 223.091 47.8331 222.688 48.7027C222.284 49.5674 221.726 50.2378 221.012 50.7138C220.297 51.1851 219.474 51.4207 218.541 51.4207C217.822 51.4207 217.247 51.3017 216.814 51.0636C216.382 50.8207 216.049 50.5462 215.816 50.2402C215.583 49.9293 215.403 49.6718 215.277 49.4678H215.073V51.1875H213.411ZM215.102 45.5911C215.102 46.4364 215.226 47.1821 215.474 47.8282C215.721 48.4695 216.083 48.9723 216.559 49.3366C217.035 49.6961 217.618 49.8759 218.308 49.8759C219.027 49.8759 219.627 49.6864 220.108 49.3075C220.594 48.9237 220.958 48.4087 221.201 47.7626C221.449 47.1117 221.573 46.3878 221.573 45.5911C221.573 44.8041 221.451 44.0949 221.208 43.4634C220.97 42.827 220.608 42.3242 220.123 41.955C219.642 41.5809 219.037 41.3939 218.308 41.3939C217.609 41.3939 217.021 41.5712 216.545 41.9258C216.069 42.2756 215.709 42.7662 215.466 43.3978C215.223 44.0244 215.102 44.7556 215.102 45.5911ZM232.361 46.6113V39.9948H234.081V51.1875H232.361V49.2929H232.245C231.982 49.8613 231.574 50.3446 231.02 50.743C230.467 51.1365 229.767 51.3332 228.922 51.3332C228.222 51.3332 227.6 51.1802 227.056 50.8742C226.512 50.5633 226.085 50.0969 225.774 49.4751C225.463 48.8484 225.307 48.059 225.307 47.1068V39.9948H227.027V46.9902C227.027 47.8064 227.255 48.4573 227.712 48.9431C228.174 49.4289 228.761 49.6718 229.476 49.6718C229.903 49.6718 230.338 49.5625 230.78 49.3439C231.227 49.1253 231.601 48.7901 231.902 48.3383C232.208 47.8865 232.361 47.3109 232.361 46.6113ZM236.615 51.1875V39.9948H238.276V41.6853H238.393C238.597 41.1315 238.966 40.6822 239.501 40.3373C240.035 39.9923 240.637 39.8199 241.308 39.8199C241.434 39.8199 241.592 39.8223 241.781 39.8272C241.971 39.832 242.114 39.8393 242.211 39.849V41.5979C242.153 41.5833 242.019 41.5615 241.811 41.5323C241.607 41.4983 241.39 41.4813 241.162 41.4813C240.618 41.4813 240.132 41.5955 239.705 41.8238C239.282 42.0473 238.947 42.3582 238.699 42.7565C238.456 43.15 238.335 43.5994 238.335 44.1046V51.1875H236.615ZM251.562 42.5015L250.018 42.9387C249.92 42.6812 249.777 42.431 249.588 42.1881C249.403 41.9404 249.151 41.7363 248.83 41.576C248.509 41.4157 248.099 41.3356 247.598 41.3356C246.913 41.3356 246.343 41.4935 245.886 41.8092C245.434 42.1201 245.208 42.5161 245.208 42.997C245.208 43.4245 245.364 43.7621 245.675 44.0099C245.986 44.2576 246.471 44.4641 247.132 44.6293L248.793 45.0373C249.794 45.2802 250.54 45.6519 251.031 46.1522C251.521 46.6477 251.767 47.2866 251.767 48.0687C251.767 48.7099 251.582 49.2832 251.213 49.7884C250.848 50.2936 250.338 50.692 249.682 50.9835C249.027 51.2749 248.264 51.4207 247.394 51.4207C246.253 51.4207 245.308 51.1729 244.56 50.6774C243.812 50.1819 243.338 49.4581 243.139 48.5059L244.771 48.0978C244.927 48.7002 245.22 49.152 245.653 49.4532C246.09 49.7544 246.661 49.905 247.365 49.905C248.167 49.905 248.803 49.735 249.274 49.3949C249.75 49.05 249.989 48.6371 249.989 48.1561C249.989 47.7675 249.852 47.442 249.58 47.1797C249.308 46.9125 248.891 46.7133 248.327 46.5822L246.462 46.1449C245.437 45.902 244.684 45.5256 244.203 45.0155C243.727 44.5005 243.489 43.8568 243.489 43.0844C243.489 42.4529 243.666 41.8942 244.021 41.4084C244.38 40.9226 244.868 40.5413 245.485 40.2644C246.107 39.9875 246.811 39.849 247.598 39.849C248.706 39.849 249.576 40.0919 250.207 40.5777C250.844 41.0635 251.295 41.7048 251.562 42.5015ZM258.432 51.4207C257.354 51.4207 256.424 51.1826 255.642 50.7066C254.864 50.2256 254.264 49.5552 253.842 48.6954C253.424 47.8307 253.215 46.8251 253.215 45.6786C253.215 44.5321 253.424 43.5216 253.842 42.6472C254.264 41.7679 254.852 41.083 255.605 40.5923C256.363 40.0968 257.247 39.849 258.258 39.849C258.84 39.849 259.416 39.9462 259.985 40.1405C260.553 40.3348 261.07 40.6506 261.537 41.0878C262.003 41.5202 262.375 42.0934 262.652 42.8075C262.928 43.5216 263.067 44.4009 263.067 45.4454V46.1741H254.439V44.6876H261.318C261.318 44.056 261.192 43.4925 260.939 42.997C260.691 42.5015 260.337 42.1104 259.875 41.8238C259.419 41.5372 258.879 41.3939 258.258 41.3939C257.573 41.3939 256.98 41.5639 256.479 41.9039C255.984 42.2391 255.603 42.6764 255.335 43.2156C255.068 43.7548 254.935 44.3329 254.935 44.9499V45.9409C254.935 46.7862 255.08 47.5027 255.372 48.0906C255.668 48.6735 256.079 49.118 256.603 49.4241C257.128 49.7253 257.738 49.8759 258.432 49.8759C258.884 49.8759 259.292 49.8127 259.657 49.6864C260.026 49.5552 260.344 49.3609 260.611 49.1034C260.878 48.8411 261.085 48.5156 261.231 48.127L262.892 48.5934C262.717 49.1569 262.423 49.6524 262.01 50.0799C261.597 50.5025 261.087 50.8329 260.48 51.0709C259.873 51.3041 259.19 51.4207 258.432 51.4207ZM269.294 51.4207C268.361 51.4207 267.538 51.1851 266.823 50.7138C266.109 50.2378 265.551 49.5674 265.147 48.7027C264.744 47.8331 264.543 46.8056 264.543 45.6203C264.543 44.4447 264.744 43.4245 265.147 42.5598C265.551 41.6951 266.112 41.0271 266.831 40.5559C267.55 40.0846 268.38 39.849 269.323 39.849C270.052 39.849 270.627 39.9705 271.05 40.2134C271.477 40.4514 271.803 40.7235 272.026 41.0295C272.255 41.3307 272.432 41.5785 272.558 41.7728H272.704V36.2639H274.424V51.1875H272.762V49.4678H272.558C272.432 49.6718 272.252 49.9293 272.019 50.2402C271.786 50.5462 271.453 50.8207 271.021 51.0636C270.588 51.3017 270.013 51.4207 269.294 51.4207ZM269.527 49.8759C270.217 49.8759 270.8 49.6961 271.276 49.3366C271.752 48.9723 272.114 48.4695 272.361 47.8282C272.609 47.1821 272.733 46.4364 272.733 45.5911C272.733 44.7556 272.612 44.0244 272.369 43.3978C272.126 42.7662 271.766 42.2756 271.29 41.9258C270.814 41.5712 270.226 41.3939 269.527 41.3939C268.798 41.3939 268.191 41.5809 267.705 41.955C267.224 42.3242 266.862 42.827 266.619 43.4634C266.381 44.0949 266.262 44.8041 266.262 45.5911C266.262 46.3878 266.384 47.1117 266.627 47.7626C266.874 48.4087 267.239 48.9237 267.72 49.3075C268.206 49.6864 268.808 49.8759 269.527 49.8759Z" fill="white"/>
<path d="M125.638 62.0057V72.1875H124.405V62.0057H125.638ZM128.844 67.5938V72.1875H127.671V64.5511H128.804V65.7443H128.904C129.083 65.3565 129.355 65.045 129.719 64.8097C130.084 64.571 130.554 64.4517 131.131 64.4517C131.648 64.4517 132.101 64.5578 132.488 64.7699C132.876 64.9787 133.178 65.2969 133.393 65.7244C133.609 66.1487 133.716 66.6856 133.716 67.3352V72.1875H132.543V67.4148C132.543 66.8149 132.387 66.3475 132.076 66.0128C131.764 65.6747 131.337 65.5057 130.793 65.5057C130.418 65.5057 130.084 65.5869 129.789 65.7493C129.497 65.9117 129.267 66.1487 129.098 66.4602C128.929 66.7718 128.844 67.1496 128.844 67.5938ZM141.551 64.5511L138.727 72.1875H137.534L134.71 64.5511H135.983L138.091 70.6364H138.17L140.278 64.5511H141.551ZM145.649 72.3466C144.959 72.3466 144.354 72.1825 143.834 71.8544C143.317 71.5263 142.913 71.0672 142.621 70.4773C142.333 69.8873 142.188 69.1979 142.188 68.4091C142.188 67.6136 142.333 66.9193 142.621 66.326C142.913 65.7327 143.317 65.272 143.834 64.9439C144.354 64.6158 144.959 64.4517 145.649 64.4517C146.338 64.4517 146.941 64.6158 147.458 64.9439C147.979 65.272 148.383 65.7327 148.671 66.326C148.963 66.9193 149.109 67.6136 149.109 68.4091C149.109 69.1979 148.963 69.8873 148.671 70.4773C148.383 71.0672 147.979 71.5263 147.458 71.8544C146.941 72.1825 146.338 72.3466 145.649 72.3466ZM145.649 71.2926C146.172 71.2926 146.603 71.1584 146.941 70.8899C147.279 70.6214 147.53 70.2685 147.692 69.831C147.854 69.3935 147.936 68.9195 147.936 68.4091C147.936 67.8987 147.854 67.4231 147.692 66.9822C147.53 66.5414 147.279 66.1851 146.941 65.9134C146.603 65.6416 146.172 65.5057 145.649 65.5057C145.125 65.5057 144.694 65.6416 144.356 65.9134C144.018 66.1851 143.768 66.5414 143.605 66.9822C143.443 67.4231 143.362 67.8987 143.362 68.4091C143.362 68.9195 143.443 69.3935 143.605 69.831C143.768 70.2685 144.018 70.6214 144.356 70.8899C144.694 71.1584 145.125 71.2926 145.649 71.2926ZM150.62 72.1875V64.5511H151.793V72.1875H150.62ZM151.216 63.2784C150.988 63.2784 150.791 63.2005 150.625 63.0447C150.462 62.889 150.381 62.7017 150.381 62.483C150.381 62.2642 150.462 62.0769 150.625 61.9212C150.791 61.7654 150.988 61.6875 151.216 61.6875C151.445 61.6875 151.641 61.7654 151.803 61.9212C151.969 62.0769 152.052 62.2642 152.052 62.483C152.052 62.7017 151.969 62.889 151.803 63.0447C151.641 63.2005 151.445 63.2784 151.216 63.2784ZM156.764 72.3466C156.049 72.3466 155.432 72.1776 154.915 71.8395C154.398 71.5014 154 71.0357 153.722 70.4425C153.443 69.8492 153.304 69.1714 153.304 68.4091C153.304 67.6335 153.447 66.9491 153.732 66.3558C154.02 65.7592 154.421 65.2936 154.935 64.9588C155.452 64.6207 156.055 64.4517 156.745 64.4517C157.281 64.4517 157.765 64.5511 158.196 64.75C158.627 64.9489 158.98 65.2273 159.255 65.5852C159.53 65.9432 159.701 66.3608 159.767 66.8381H158.594C158.504 66.4901 158.306 66.1818 157.997 65.9134C157.692 65.6416 157.281 65.5057 156.764 65.5057C156.307 65.5057 155.906 65.625 155.561 65.8636C155.22 66.099 154.953 66.4321 154.761 66.8629C154.572 67.2905 154.477 67.7926 154.477 68.3693C154.477 68.9593 154.57 69.473 154.756 69.9105C154.945 70.348 155.21 70.6877 155.551 70.9297C155.896 71.1716 156.3 71.2926 156.764 71.2926C157.069 71.2926 157.346 71.2396 157.595 71.1335C157.843 71.0275 158.054 70.875 158.226 70.6761C158.398 70.4773 158.521 70.2386 158.594 69.9602H159.767C159.701 70.411 159.537 70.817 159.275 71.1783C159.017 71.5362 158.674 71.8213 158.246 72.0334C157.822 72.2422 157.328 72.3466 156.764 72.3466ZM164.404 72.3466C163.668 72.3466 163.034 72.1842 162.5 71.8594C161.97 71.5312 161.56 71.0739 161.272 70.4872C160.987 69.8973 160.845 69.2112 160.845 68.429C160.845 67.6468 160.987 66.9574 161.272 66.3608C161.56 65.7609 161.961 65.2936 162.475 64.9588C162.992 64.6207 163.595 64.4517 164.285 64.4517C164.683 64.4517 165.075 64.518 165.463 64.6506C165.851 64.7831 166.204 64.9986 166.522 65.2969C166.84 65.5919 167.094 65.983 167.283 66.4702C167.472 66.9574 167.566 67.5573 167.566 68.2699V68.767H161.68V67.7528H166.373C166.373 67.322 166.287 66.9375 166.114 66.5994C165.945 66.2614 165.703 65.9946 165.389 65.799C165.077 65.6035 164.709 65.5057 164.285 65.5057C163.818 65.5057 163.413 65.6217 163.072 65.8537C162.734 66.0824 162.474 66.3807 162.291 66.7486C162.109 67.1165 162.018 67.5109 162.018 67.9318V68.608C162.018 69.1847 162.117 69.6735 162.316 70.0746C162.518 70.4723 162.798 70.7756 163.156 70.9844C163.514 71.1899 163.93 71.2926 164.404 71.2926C164.712 71.2926 164.991 71.2495 165.239 71.1634C165.491 71.0739 165.708 70.9413 165.891 70.7656C166.073 70.5866 166.214 70.3646 166.313 70.0994L167.447 70.4176C167.327 70.8021 167.127 71.1402 166.845 71.4318C166.563 71.7202 166.215 71.9455 165.801 72.108C165.387 72.267 164.921 72.3466 164.404 72.3466ZM179.848 65.1875C179.738 64.8527 179.594 64.5528 179.415 64.2876C179.24 64.0192 179.029 63.7905 178.784 63.6016C178.542 63.4126 178.267 63.2685 177.959 63.169C177.65 63.0696 177.312 63.0199 176.944 63.0199C176.341 63.0199 175.793 63.1757 175.299 63.4872C174.805 63.7988 174.412 64.2578 174.12 64.8643C173.829 65.4709 173.683 66.215 173.683 67.0966C173.683 67.9782 173.83 68.7223 174.125 69.3288C174.42 69.9354 174.82 70.3944 175.324 70.706C175.827 71.0175 176.394 71.1733 177.024 71.1733C177.607 71.1733 178.121 71.049 178.565 70.8004C179.012 70.5485 179.36 70.1939 179.609 69.7365C179.861 69.2758 179.987 68.7339 179.987 68.1108L180.365 68.1903H177.302V67.0966H181.18V68.1903C181.18 69.0289 181.001 69.758 180.643 70.3778C180.289 70.9976 179.798 71.4782 179.172 71.8196C178.548 72.1577 177.833 72.3267 177.024 72.3267C176.122 72.3267 175.33 72.1146 174.647 71.6903C173.968 71.2661 173.438 70.6629 173.057 69.8807C172.679 69.0985 172.49 68.1705 172.49 67.0966C172.49 66.2912 172.597 65.567 172.813 64.924C173.032 64.2777 173.34 63.7275 173.738 63.2734C174.135 62.8194 174.606 62.4714 175.15 62.2294C175.693 61.9875 176.291 61.8665 176.944 61.8665C177.481 61.8665 177.982 61.9477 178.446 62.1101C178.913 62.2692 179.329 62.4962 179.694 62.7912C180.061 63.0829 180.368 63.4325 180.613 63.8402C180.859 64.2446 181.028 64.6937 181.12 65.1875H179.848ZM186.054 72.3466C185.319 72.3466 184.684 72.1842 184.15 71.8594C183.62 71.5312 183.211 71.0739 182.922 70.4872C182.637 69.8973 182.495 69.2112 182.495 68.429C182.495 67.6468 182.637 66.9574 182.922 66.3608C183.211 65.7609 183.612 65.2936 184.125 64.9588C184.642 64.6207 185.246 64.4517 185.935 64.4517C186.333 64.4517 186.726 64.518 187.113 64.6506C187.501 64.7831 187.854 64.9986 188.172 65.2969C188.49 65.5919 188.744 65.983 188.933 66.4702C189.122 66.9574 189.216 67.5573 189.216 68.2699V68.767H183.33V67.7528H188.023C188.023 67.322 187.937 66.9375 187.765 66.5994C187.596 66.2614 187.354 65.9946 187.039 65.799C186.727 65.6035 186.359 65.5057 185.935 65.5057C185.468 65.5057 185.063 65.6217 184.722 65.8537C184.384 66.0824 184.124 66.3807 183.941 66.7486C183.759 67.1165 183.668 67.5109 183.668 67.9318V68.608C183.668 69.1847 183.767 69.6735 183.966 70.0746C184.169 70.4723 184.449 70.7756 184.807 70.9844C185.164 71.1899 185.58 71.2926 186.054 71.2926C186.363 71.2926 186.641 71.2495 186.89 71.1634C187.142 71.0739 187.359 70.9413 187.541 70.7656C187.723 70.5866 187.864 70.3646 187.963 70.0994L189.097 70.4176C188.978 70.8021 188.777 71.1402 188.495 71.4318C188.214 71.7202 187.866 71.9455 187.451 72.108C187.037 72.267 186.571 72.3466 186.054 72.3466ZM191.894 67.5938V72.1875H190.721V64.5511H191.855V65.7443H191.954C192.133 65.3565 192.405 65.045 192.769 64.8097C193.134 64.571 193.605 64.4517 194.181 64.4517C194.698 64.4517 195.151 64.5578 195.539 64.7699C195.926 64.9787 196.228 65.2969 196.443 65.7244C196.659 66.1487 196.767 66.6856 196.767 67.3352V72.1875H195.593V67.4148C195.593 66.8149 195.438 66.3475 195.126 66.0128C194.814 65.6747 194.387 65.5057 193.843 65.5057C193.469 65.5057 193.134 65.5869 192.839 65.7493C192.547 65.9117 192.317 66.1487 192.148 66.4602C191.979 66.7718 191.894 67.1496 191.894 67.5938ZM201.832 72.3466C201.096 72.3466 200.462 72.1842 199.928 71.8594C199.398 71.5312 198.989 71.0739 198.7 70.4872C198.415 69.8973 198.273 69.2112 198.273 68.429C198.273 67.6468 198.415 66.9574 198.7 66.3608C198.989 65.7609 199.39 65.2936 199.903 64.9588C200.42 64.6207 201.024 64.4517 201.713 64.4517C202.111 64.4517 202.503 64.518 202.891 64.6506C203.279 64.7831 203.632 64.9986 203.95 65.2969C204.268 65.5919 204.522 65.983 204.711 66.4702C204.9 66.9574 204.994 67.5573 204.994 68.2699V68.767H199.108V67.7528H203.801C203.801 67.322 203.715 66.9375 203.543 66.5994C203.373 66.2614 203.132 65.9946 202.817 65.799C202.505 65.6035 202.137 65.5057 201.713 65.5057C201.246 65.5057 200.841 65.6217 200.5 65.8537C200.162 66.0824 199.902 66.3807 199.719 66.7486C199.537 67.1165 199.446 67.5109 199.446 67.9318V68.608C199.446 69.1847 199.545 69.6735 199.744 70.0746C199.946 70.4723 200.226 70.7756 200.584 70.9844C200.942 71.1899 201.358 71.2926 201.832 71.2926C202.141 71.2926 202.419 71.2495 202.668 71.1634C202.919 71.0739 203.136 70.9413 203.319 70.7656C203.501 70.5866 203.642 70.3646 203.741 70.0994L204.875 70.4176C204.756 70.8021 204.555 71.1402 204.273 71.4318C203.992 71.7202 203.644 71.9455 203.229 72.108C202.815 72.267 202.349 72.3466 201.832 72.3466ZM206.499 72.1875V64.5511H207.633V65.7045H207.712C207.851 65.3267 208.103 65.0201 208.468 64.7848C208.832 64.5495 209.243 64.4318 209.701 64.4318C209.787 64.4318 209.895 64.4335 210.024 64.4368C210.153 64.4401 210.251 64.4451 210.317 64.4517V65.6449C210.277 65.6349 210.186 65.62 210.044 65.6001C209.905 65.5769 209.757 65.5653 209.601 65.5653C209.23 65.5653 208.899 65.6432 208.607 65.799C208.319 65.9515 208.09 66.1636 207.921 66.4354C207.755 66.7038 207.672 67.0104 207.672 67.3551V72.1875H206.499ZM213.675 72.3665C213.191 72.3665 212.752 72.2753 212.358 72.093C211.963 71.9074 211.65 71.6406 211.418 71.2926C211.186 70.9413 211.07 70.517 211.07 70.0199C211.07 69.5824 211.156 69.2277 211.329 68.956C211.501 68.6809 211.731 68.4654 212.02 68.3097C212.308 68.1539 212.626 68.0379 212.974 67.9616C213.325 67.8821 213.678 67.8191 214.033 67.7727C214.497 67.7131 214.873 67.6683 215.162 67.6385C215.453 67.6054 215.665 67.5507 215.798 67.4744C215.934 67.3982 216.002 67.2656 216.002 67.0767V67.0369C216.002 66.5464 215.868 66.1652 215.599 65.8935C215.334 65.6217 214.931 65.4858 214.391 65.4858C213.831 65.4858 213.392 65.6084 213.074 65.8537C212.755 66.099 212.532 66.3608 212.402 66.6392L211.289 66.2415C211.488 65.7775 211.753 65.4162 212.084 65.1577C212.419 64.8958 212.784 64.7135 213.178 64.6108C213.576 64.5047 213.967 64.4517 214.351 64.4517C214.597 64.4517 214.878 64.4815 215.196 64.5412C215.518 64.5975 215.828 64.7152 216.126 64.8942C216.428 65.0732 216.678 65.3433 216.877 65.7045C217.076 66.0658 217.175 66.5497 217.175 67.1562V72.1875H216.002V71.1534H215.942C215.863 71.3191 215.73 71.4964 215.544 71.6854C215.359 71.8743 215.112 72.035 214.804 72.1676C214.495 72.3002 214.119 72.3665 213.675 72.3665ZM213.854 71.3125C214.318 71.3125 214.709 71.2214 215.027 71.0391C215.349 70.8568 215.591 70.6214 215.753 70.3331C215.919 70.0447 216.002 69.7415 216.002 69.4233V68.3494C215.952 68.4091 215.843 68.4638 215.674 68.5135C215.508 68.5599 215.316 68.6013 215.097 68.6378C214.882 68.6709 214.671 68.7008 214.466 68.7273C214.263 68.7505 214.099 68.7704 213.973 68.7869C213.669 68.8267 213.383 68.8913 213.118 68.9808C212.857 69.067 212.644 69.1979 212.482 69.3736C212.323 69.5459 212.243 69.7812 212.243 70.0795C212.243 70.4872 212.394 70.7955 212.696 71.0043C213.001 71.2098 213.387 71.3125 213.854 71.3125ZM222.358 64.5511V65.5455H218.4V64.5511H222.358ZM219.554 62.7216H220.727V70C220.727 70.3314 220.775 70.58 220.871 70.7457C220.971 70.9081 221.097 71.0175 221.249 71.0739C221.405 71.1269 221.569 71.1534 221.741 71.1534C221.87 71.1534 221.977 71.1468 222.059 71.1335C222.142 71.117 222.209 71.1037 222.258 71.0938L222.497 72.1477C222.417 72.1776 222.306 72.2074 222.164 72.2372C222.021 72.2704 221.841 72.2869 221.622 72.2869C221.29 72.2869 220.966 72.2157 220.647 72.0732C220.333 71.9306 220.071 71.7135 219.862 71.4219C219.656 71.1302 219.554 70.7623 219.554 70.3182V62.7216ZM226.962 72.3466C226.226 72.3466 225.592 72.1842 225.058 71.8594C224.528 71.5312 224.119 71.0739 223.83 70.4872C223.545 69.8973 223.403 69.2112 223.403 68.429C223.403 67.6468 223.545 66.9574 223.83 66.3608C224.119 65.7609 224.52 65.2936 225.033 64.9588C225.55 64.6207 226.154 64.4517 226.843 64.4517C227.241 64.4517 227.633 64.518 228.021 64.6506C228.409 64.7831 228.762 64.9986 229.08 65.2969C229.398 65.5919 229.652 65.983 229.841 66.4702C230.03 66.9574 230.124 67.5573 230.124 68.2699V68.767H224.238V67.7528H228.931C228.931 67.322 228.845 66.9375 228.673 66.5994C228.503 66.2614 228.262 65.9946 227.947 65.799C227.635 65.6035 227.267 65.5057 226.843 65.5057C226.376 65.5057 225.971 65.6217 225.63 65.8537C225.292 66.0824 225.032 66.3807 224.849 66.7486C224.667 67.1165 224.576 67.5109 224.576 67.9318V68.608C224.576 69.1847 224.675 69.6735 224.874 70.0746C225.076 70.4723 225.356 70.7756 225.714 70.9844C226.072 71.1899 226.488 71.2926 226.962 71.2926C227.271 71.2926 227.549 71.2495 227.798 71.1634C228.049 71.0739 228.267 70.9413 228.449 70.7656C228.631 70.5866 228.772 70.3646 228.871 70.0994L230.005 70.4176C229.886 70.8021 229.685 71.1402 229.403 71.4318C229.122 71.7202 228.774 71.9455 228.359 72.108C227.945 72.267 227.479 72.3466 226.962 72.3466ZM234.513 72.3466C233.876 72.3466 233.314 72.1858 232.827 71.8643C232.34 71.5395 231.959 71.0821 231.684 70.4922C231.409 69.8989 231.271 69.1979 231.271 68.3892C231.271 67.5871 231.409 66.8911 231.684 66.3011C231.959 65.7112 232.342 65.2554 232.832 64.9339C233.323 64.6125 233.889 64.4517 234.532 64.4517C235.03 64.4517 235.422 64.5346 235.711 64.7003C236.002 64.8627 236.224 65.0483 236.377 65.2571C236.533 65.4626 236.654 65.6316 236.74 65.7642H236.839V62.0057H238.013V72.1875H236.879V71.0142H236.74C236.654 71.1534 236.531 71.3291 236.372 71.5412C236.213 71.75 235.986 71.9373 235.691 72.103C235.396 72.2654 235.003 72.3466 234.513 72.3466ZM234.672 71.2926C235.142 71.2926 235.54 71.17 235.865 70.9247C236.19 70.6761 236.437 70.3331 236.606 69.8956C236.775 69.4548 236.859 68.946 236.859 68.3693C236.859 67.7992 236.776 67.3004 236.611 66.8729C236.445 66.442 236.2 66.1072 235.875 65.8686C235.55 65.6267 235.149 65.5057 234.672 65.5057C234.174 65.5057 233.76 65.6333 233.429 65.8885C233.101 66.1404 232.854 66.4834 232.688 66.9176C232.526 67.3485 232.444 67.8324 232.444 68.3693C232.444 68.9129 232.527 69.4067 232.693 69.8509C232.862 70.2917 233.111 70.643 233.439 70.9048C233.77 71.1634 234.181 71.2926 234.672 71.2926Z" fill="white" fill-opacity="0.25"/>
<g clip-path="url(#clip0_0_672)">
<g clip-path="url(#clip1_0_672)">
<path d="M85.1409 15.917H39.3201C27.2336 15.917 17.4355 25.7151 17.4355 37.8016V56.2667C17.4355 68.3532 27.2336 78.1513 39.3201 78.1513H85.1409C97.2275 78.1513 107.026 68.3532 107.026 56.2667V37.8016C107.026 25.7151 97.2275 15.917 85.1409 15.917Z" fill="black" fill-opacity="0.89"/>
<path d="M56 48.25C55.8011 48.25 55.6103 48.329 55.4697 48.4697C55.329 48.6103 55.25 48.8011 55.25 49C55.25 49.1989 55.329 49.3897 55.4697 49.5303C55.6103 49.671 55.8011 49.75 56 49.75H62C62.1989 49.75 62.3897 49.671 62.5303 49.5303C62.671 49.3897 62.75 49.1989 62.75 49C62.75 48.8011 62.671 48.6103 62.5303 48.4697C62.3897 48.329 62.1989 48.25 62 48.25H56Z" fill="#D6CFFD"/>
<path fill-rule="evenodd" clip-rule="evenodd" d="M55 38C54.2044 38 53.4413 38.3161 52.8787 38.8787C52.3161 39.4413 52 40.2044 52 41V51C52 51.7956 52.3161 52.5587 52.8787 53.1213C53.4413 53.6839 54.2044 54 55 54H69C69.7956 54 70.5587 53.6839 71.1213 53.1213C71.6839 52.5587 72 51.7956 72 51V41C72 40.2044 71.6839 39.4413 71.1213 38.8787C70.5587 38.3161 69.7956 38 69 38H55ZM69 39.5H55C54.6022 39.5 54.2206 39.658 53.9393 39.9393C53.658 40.2206 53.5 40.6022 53.5 41V42.25H70.5V41C70.5 40.6022 70.342 40.2206 70.0607 39.9393C69.7794 39.658 69.3978 39.5 69 39.5ZM53.5 51V43.75H70.5V51C70.5 51.3978 70.342 51.7794 70.0607 52.0607C69.7794 52.342 69.3978 52.5 69 52.5H55C54.6022 52.5 54.2206 52.342 53.9393 52.0607C53.658 51.7794 53.5 51.3978 53.5 51Z" fill="#D6CFFD"/>
</g>
</g>
<path d="M124.172 23.1875C124.172 20.9784 125.963 19.1875 128.172 19.1875C130.381 19.1875 132.172 20.9784 132.172 23.1875C132.172 25.3966 130.381 27.1875 128.172 27.1875C125.963 27.1875 124.172 25.3966 124.172 23.1875Z" fill="#D6CFFD"/>
<path d="M142.82 18.4148V25.6875H141.967L138.004 19.9773H137.933V25.6875H137.053V18.4148H137.905L141.882 24.1392H141.953V18.4148H142.82ZM145.182 25.6875V18.4148H149.571V19.196H146.063V21.6534H149.344V22.4347H146.063V24.9062H149.628V25.6875H145.182ZM153.079 25.6875L151.091 18.4148H151.986L153.506 24.3381H153.577L155.125 18.4148H156.119L157.668 24.3381H157.739L159.258 18.4148H160.153L158.165 25.6875H157.256L155.65 19.892H155.594L153.989 25.6875H153.079Z" fill="#D6CFFD"/>
<defs>
<clipPath id="clip0_0_672">
<rect width="90" height="63" fill="white" transform="translate(17.1719 15.1875)"/>
</clipPath>
<clipPath id="clip1_0_672">
<rect width="90" height="63" fill="white" transform="translate(17.1719 15.1875)"/>
</clipPath>
</defs>
</svg>
