<svg width="282" height="226" viewBox="0 0 282 226" fill="none" xmlns="http://www.w3.org/2000/svg">
<g clip-path="url(#clip0_0_615)">
<g opacity="0.6">
<path d="M21 29.1875C21 15.9327 31.7452 5.1875 45 5.1875H239C252.255 5.1875 263 15.9327 263 29.1875V164.188C263 177.442 252.255 188.188 239 188.188H45C31.7452 188.188 21 177.442 21 164.188V29.1875Z" fill="#131313" fill-opacity="0.89"/>
</g>
<g clip-path="url(#clip1_0_615)">
<path d="M0.5 38.1875C0.5 24.9327 11.2452 14.1875 24.5 14.1875H256.5C269.755 14.1875 280.5 24.9327 280.5 38.1875V201.188C280.5 214.442 269.755 225.188 256.5 225.188H24.5C11.2452 225.188 0.5 214.442 0.5 201.188V38.1875Z" fill="#131313"/>
<g clip-path="url(#clip2_0_615)">
<path d="M29.4241 39.6675C29.3458 39.0065 29.0283 38.4933 28.4716 38.128C27.915 37.7627 27.2322 37.58 26.4233 37.58C25.8318 37.58 25.3143 37.6757 24.8707 37.867C24.4315 38.0584 24.0879 38.3215 23.84 38.6564C23.5965 38.9912 23.4747 39.3718 23.4747 39.798C23.4747 40.1546 23.5595 40.4612 23.7291 40.7178C23.9031 40.97 24.1249 41.1809 24.3945 41.3505C24.6641 41.5158 24.9468 41.6528 25.2425 41.7615C25.5383 41.8659 25.8101 41.9507 26.058 42.0159L27.4148 42.3812C27.7628 42.4726 28.1498 42.5987 28.576 42.7596C29.0066 42.9205 29.4175 43.1401 29.8089 43.4185C30.2047 43.6925 30.5309 44.0447 30.7875 44.4753C31.0441 44.9058 31.1723 45.4342 31.1723 46.0605C31.1723 46.7824 30.9832 47.4347 30.6048 48.0175C30.2308 48.6003 29.6828 49.0634 28.9609 49.407C28.2433 49.7506 27.3714 49.9223 26.345 49.9223C25.3882 49.9223 24.5598 49.768 23.8596 49.4592C23.1637 49.1504 22.6158 48.7199 22.2157 48.1675C21.8199 47.6152 21.5959 46.9737 21.5438 46.2431H23.2138C23.2572 46.7476 23.4268 47.1651 23.7226 47.4956C24.0227 47.8218 24.401 48.0653 24.8577 48.2262C25.3186 48.3828 25.8144 48.4611 26.345 48.4611C26.9626 48.4611 27.517 48.3611 28.0085 48.161C28.4999 47.9566 28.8891 47.6739 29.1762 47.313C29.4632 46.9477 29.6067 46.5215 29.6067 46.0344C29.6067 45.5908 29.4828 45.2298 29.2349 44.9515C28.987 44.6732 28.6608 44.447 28.2564 44.273C27.8519 44.0991 27.4148 43.9469 26.9452 43.8164L25.3013 43.3467C24.2575 43.0466 23.4312 42.6183 22.8223 42.0616C22.2135 41.5049 21.9091 40.7765 21.9091 39.8762C21.9091 39.1282 22.1113 38.4759 22.5157 37.9192C22.9245 37.3582 23.4725 36.9233 24.1596 36.6145C24.8511 36.3014 25.6231 36.1448 26.4755 36.1448C27.3366 36.1448 28.102 36.2992 28.7717 36.608C29.4415 36.9124 29.972 37.3299 30.3634 37.8605C30.7592 38.3911 30.9679 38.9934 30.9897 39.6675H29.4241ZM36.021 49.9223C35.3861 49.9223 34.8098 49.8027 34.2923 49.5636C33.7748 49.32 33.3638 48.9699 33.0594 48.5133C32.755 48.0523 32.6027 47.4956 32.6027 46.8433C32.6027 46.2692 32.7158 45.8039 32.942 45.4473C33.1681 45.0863 33.4704 44.8036 33.8487 44.5992C34.2271 44.3948 34.6446 44.2426 35.1012 44.1426C35.5622 44.0382 36.0254 43.9556 36.4907 43.8947C37.0996 43.8164 37.5932 43.7577 37.9715 43.7186C38.3542 43.6751 38.6326 43.6033 38.8065 43.5033C38.9848 43.4033 39.074 43.2293 39.074 42.9814V42.9292C39.074 42.2856 38.8979 41.7854 38.5456 41.4288C38.1977 41.0722 37.6693 40.8939 36.9604 40.8939C36.2254 40.8939 35.6492 41.0548 35.2317 41.3766C34.8142 41.6985 34.5206 42.042 34.351 42.4073L32.8898 41.8855C33.1507 41.2766 33.4986 40.8026 33.9335 40.4634C34.3728 40.1198 34.8512 39.8806 35.3687 39.7458C35.8906 39.6066 36.4037 39.537 36.9082 39.537C37.23 39.537 37.5997 39.5762 38.0172 39.6545C38.439 39.7284 38.8457 39.8828 39.2371 40.1176C39.6328 40.3525 39.9612 40.7069 40.2221 41.1809C40.4831 41.655 40.6135 42.2899 40.6135 43.0858V49.6875H39.074V48.3306H38.9957C38.8913 48.5481 38.7174 48.7807 38.4738 49.0286C38.2303 49.2765 37.9063 49.4874 37.5018 49.6614C37.0974 49.8354 36.6038 49.9223 36.021 49.9223ZM36.2559 48.5394C36.8647 48.5394 37.3779 48.4198 37.7954 48.1806C38.2172 47.9414 38.5347 47.6326 38.7478 47.2543C38.9653 46.8759 39.074 46.478 39.074 46.0605V44.6514C39.0088 44.7297 38.8652 44.8014 38.6434 44.8667C38.426 44.9276 38.1738 44.9819 37.8867 45.0298C37.604 45.0733 37.3279 45.1124 37.0582 45.1472C36.793 45.1776 36.5777 45.2037 36.4124 45.2255C36.0123 45.2777 35.6383 45.3625 35.2904 45.4799C34.9468 45.593 34.6685 45.7647 34.4554 45.9952C34.2466 46.2214 34.1423 46.5302 34.1423 46.9216C34.1423 47.4565 34.3401 47.8609 34.7359 48.1349C35.136 48.4046 35.6427 48.5394 36.2559 48.5394ZM50.707 39.6675L47.0017 49.6875H45.4361L41.7308 39.6675H43.4008L46.1667 47.6522H46.2711L49.037 39.6675H50.707ZM56.0303 49.8963C55.0648 49.8963 54.232 49.6832 53.5318 49.257C52.836 48.8264 52.2989 48.2262 51.9205 47.4565C51.5465 46.6824 51.3595 45.7821 51.3595 44.7558C51.3595 43.7294 51.5465 42.8248 51.9205 42.042C52.2989 41.2549 52.8251 40.6417 53.4992 40.2024C54.1776 39.7588 54.9692 39.537 55.8737 39.537C56.3956 39.537 56.911 39.624 57.4198 39.798C57.9286 39.9719 58.3918 40.2546 58.8093 40.646C59.2268 41.0331 59.5595 41.5462 59.8074 42.1855C60.0553 42.8248 60.1792 43.612 60.1792 44.547V45.1994H52.4555V43.8686H58.6136C58.6136 43.3032 58.5005 42.7987 58.2744 42.3552C58.0526 41.9116 57.7351 41.5615 57.3219 41.3049C56.9131 41.0483 56.4304 40.92 55.8737 40.92C55.2605 40.92 54.73 41.0722 54.282 41.3766C53.8384 41.6767 53.497 42.0681 53.2578 42.5509C53.0186 43.0336 52.899 43.5511 52.899 44.1034V44.9906C52.899 45.7473 53.0295 46.3888 53.2905 46.915C53.5557 47.4369 53.9232 47.8348 54.3929 48.1088C54.8626 48.3785 55.4084 48.5133 56.0303 48.5133C56.4347 48.5133 56.8001 48.4567 57.1262 48.3437C57.4568 48.2262 57.7416 48.0523 57.9808 47.8218C58.22 47.587 58.4048 47.2956 58.5353 46.9477L60.0226 47.3652C59.8661 47.8696 59.603 48.3132 59.2333 48.6959C58.8636 49.0743 58.407 49.37 57.8634 49.5831C57.3198 49.7919 56.7087 49.8963 56.0303 49.8963ZM70.4995 51.3575V34.6575H71.5694V51.3575H70.4995ZM74.1005 39.6675C74.0222 39.0065 73.7047 38.4933 73.1481 38.128C72.5914 37.7627 71.9086 37.58 71.0997 37.58C70.5082 37.58 69.9907 37.6757 69.5471 37.867C69.1079 38.0584 68.7643 38.3215 68.5164 38.6564C68.2729 38.9912 68.1511 39.3718 68.1511 39.798C68.1511 40.1546 68.2359 40.4612 68.4055 40.7178C68.5795 40.97 68.8013 41.1809 69.0709 41.3505C69.3405 41.5158 69.6232 41.6528 69.919 41.7615C70.2147 41.8659 70.4865 41.9507 70.7344 42.0159L72.0913 42.3812C72.4392 42.4726 72.8262 42.5987 73.2524 42.7596C73.683 42.9205 74.094 43.1401 74.4854 43.4185C74.8811 43.6925 75.2073 44.0447 75.4639 44.4753C75.7205 44.9058 75.8488 45.4342 75.8488 46.0605C75.8488 46.7824 75.6596 47.4347 75.2812 48.0175C74.9072 48.6003 74.3592 49.0634 73.6373 49.407C72.9197 49.7506 72.0478 49.9223 71.0214 49.9223C70.0646 49.9223 69.2362 49.768 68.536 49.4592C67.8402 49.1504 67.2922 48.7199 66.8921 48.1675C66.4963 47.6152 66.2724 46.9737 66.2202 46.2431H67.8902C67.9337 46.7476 68.1033 47.1651 68.399 47.4956C68.6991 47.8218 69.0774 48.0653 69.5341 48.2262C69.9951 48.3828 70.4908 48.4611 71.0214 48.4611C71.639 48.4611 72.1935 48.3611 72.6849 48.161C73.1763 47.9566 73.5656 47.6739 73.8526 47.313C74.1396 46.9477 74.2831 46.5215 74.2831 46.0344C74.2831 45.5908 74.1592 45.2298 73.9113 44.9515C73.6634 44.6732 73.3372 44.447 72.9328 44.273C72.5283 44.0991 72.0913 43.9469 71.6216 43.8164L69.9777 43.3467C68.9339 43.0466 68.1076 42.6183 67.4988 42.0616C66.8899 41.5049 66.5855 40.7765 66.5855 39.8762C66.5855 39.1282 66.7877 38.4759 67.1922 37.9192C67.601 37.3582 68.1489 36.9233 68.8361 36.6145C69.5275 36.3014 70.2995 36.1448 71.1519 36.1448C72.013 36.1448 72.7784 36.2992 73.4481 36.608C74.1179 36.9124 74.6484 37.3299 75.0399 37.8605C75.4356 38.3911 75.6444 38.9934 75.6661 39.6675H74.1005Z" fill="#D6CFFD"/>
</g>
<path d="M233.984 193.503V192.464H240.176V193.503H237.68V200.464H236.477V193.503H233.984ZM242.777 200.585C242.215 200.585 241.724 200.456 241.305 200.198C240.885 199.941 240.56 199.58 240.328 199.116C240.096 198.653 239.981 198.111 239.981 197.491C239.981 196.869 240.096 196.325 240.328 195.859C240.56 195.392 240.885 195.031 241.305 194.773C241.724 194.515 242.215 194.386 242.777 194.386C243.34 194.386 243.831 194.515 244.25 194.773C244.669 195.031 244.995 195.392 245.227 195.859C245.458 196.325 245.574 196.869 245.574 197.491C245.574 198.111 245.458 198.653 245.227 199.116C244.995 199.58 244.669 199.941 244.25 200.198C243.831 200.456 243.34 200.585 242.777 200.585ZM242.781 199.605C243.146 199.605 243.448 199.508 243.688 199.316C243.927 199.123 244.104 198.866 244.219 198.546C244.336 198.226 244.395 197.873 244.395 197.488C244.395 197.105 244.336 196.753 244.219 196.433C244.104 196.11 243.927 195.851 243.688 195.656C243.448 195.46 243.146 195.363 242.781 195.363C242.414 195.363 242.109 195.46 241.867 195.656C241.628 195.851 241.449 196.11 241.332 196.433C241.218 196.753 241.16 197.105 241.16 197.488C241.16 197.873 241.218 198.226 241.332 198.546C241.449 198.866 241.628 199.123 241.867 199.316C242.109 199.508 242.414 199.605 242.781 199.605ZM248.794 200.581C248.31 200.581 247.877 200.458 247.497 200.21C247.12 199.96 246.823 199.605 246.607 199.144C246.393 198.68 246.286 198.124 246.286 197.476C246.286 196.827 246.394 196.273 246.611 195.812C246.829 195.351 247.129 194.998 247.509 194.753C247.889 194.508 248.32 194.386 248.802 194.386C249.174 194.386 249.474 194.448 249.7 194.573C249.93 194.696 250.107 194.839 250.232 195.003C250.359 195.167 250.458 195.312 250.528 195.437H250.599V192.464H251.767V200.464H250.626V199.531H250.528C250.458 199.658 250.357 199.804 250.224 199.968C250.094 200.132 249.914 200.275 249.685 200.398C249.456 200.52 249.159 200.581 248.794 200.581ZM249.052 199.585C249.388 199.585 249.672 199.497 249.903 199.32C250.138 199.14 250.315 198.891 250.435 198.573C250.557 198.256 250.618 197.886 250.618 197.464C250.618 197.047 250.558 196.683 250.439 196.37C250.319 196.058 250.143 195.814 249.911 195.64C249.68 195.465 249.393 195.378 249.052 195.378C248.7 195.378 248.407 195.469 248.173 195.652C247.939 195.834 247.762 196.083 247.642 196.398C247.525 196.713 247.466 197.068 247.466 197.464C247.466 197.865 247.526 198.226 247.646 198.546C247.765 198.866 247.943 199.12 248.177 199.308C248.414 199.493 248.706 199.585 249.052 199.585ZM254.85 200.597C254.47 200.597 254.126 200.527 253.819 200.386C253.511 200.243 253.268 200.036 253.088 199.765C252.911 199.494 252.823 199.162 252.823 198.769C252.823 198.43 252.888 198.152 253.018 197.933C253.148 197.714 253.324 197.541 253.545 197.413C253.767 197.286 254.014 197.189 254.287 197.124C254.561 197.059 254.839 197.01 255.123 196.976C255.483 196.934 255.774 196.9 255.998 196.874C256.222 196.846 256.385 196.8 256.487 196.738C256.588 196.675 256.639 196.573 256.639 196.433V196.406C256.639 196.064 256.543 195.8 256.35 195.613C256.16 195.425 255.876 195.331 255.498 195.331C255.105 195.331 254.795 195.419 254.569 195.593C254.345 195.765 254.19 195.956 254.104 196.167L253.006 195.917C253.136 195.553 253.326 195.258 253.576 195.034C253.829 194.808 254.119 194.644 254.448 194.542C254.776 194.438 255.121 194.386 255.483 194.386C255.722 194.386 255.976 194.415 256.244 194.472C256.515 194.527 256.768 194.628 257.002 194.777C257.239 194.925 257.433 195.137 257.584 195.413C257.735 195.687 257.811 196.042 257.811 196.48V200.464H256.67V199.644H256.623C256.548 199.795 256.434 199.943 256.283 200.089C256.132 200.235 255.938 200.356 255.701 200.452C255.464 200.549 255.181 200.597 254.85 200.597ZM255.104 199.659C255.427 199.659 255.703 199.596 255.932 199.468C256.164 199.34 256.339 199.174 256.459 198.968C256.582 198.76 256.643 198.537 256.643 198.3V197.527C256.601 197.568 256.52 197.607 256.401 197.644C256.283 197.678 256.149 197.708 255.998 197.734C255.847 197.757 255.7 197.779 255.557 197.8C255.414 197.818 255.294 197.834 255.198 197.847C254.971 197.876 254.764 197.924 254.576 197.991C254.392 198.059 254.243 198.157 254.131 198.284C254.022 198.409 253.967 198.576 253.967 198.784C253.967 199.073 254.074 199.292 254.287 199.441C254.501 199.587 254.773 199.659 255.104 199.659ZM259.56 202.714C259.385 202.714 259.227 202.7 259.083 202.671C258.94 202.645 258.833 202.616 258.763 202.585L259.044 201.628C259.258 201.685 259.448 201.71 259.615 201.702C259.781 201.695 259.928 201.632 260.056 201.515C260.186 201.398 260.301 201.206 260.4 200.941L260.544 200.542L258.349 194.464H259.599L261.118 199.12H261.181L262.701 194.464H263.954L261.482 201.265C261.367 201.577 261.221 201.842 261.044 202.058C260.867 202.277 260.656 202.441 260.411 202.55C260.167 202.659 259.883 202.714 259.56 202.714Z" fill="white" fill-opacity="0.21"/>
<path d="M128.039 192.464V200.464H126.93L122.863 194.597H122.789V200.464H121.582V192.464H122.699L126.77 198.339H126.844V192.464H128.039ZM131.903 200.585C131.341 200.585 130.85 200.456 130.431 200.198C130.011 199.941 129.686 199.58 129.454 199.116C129.222 198.653 129.107 198.111 129.107 197.491C129.107 196.869 129.222 196.325 129.454 195.859C129.686 195.392 130.011 195.031 130.431 194.773C130.85 194.515 131.341 194.386 131.903 194.386C132.466 194.386 132.957 194.515 133.376 194.773C133.795 195.031 134.121 195.392 134.353 195.859C134.584 196.325 134.7 196.869 134.7 197.491C134.7 198.111 134.584 198.653 134.353 199.116C134.121 199.58 133.795 199.941 133.376 200.198C132.957 200.456 132.466 200.585 131.903 200.585ZM131.907 199.605C132.272 199.605 132.574 199.508 132.814 199.316C133.053 199.123 133.23 198.866 133.345 198.546C133.462 198.226 133.521 197.873 133.521 197.488C133.521 197.105 133.462 196.753 133.345 196.433C133.23 196.11 133.053 195.851 132.814 195.656C132.574 195.46 132.272 195.363 131.907 195.363C131.54 195.363 131.235 195.46 130.993 195.656C130.754 195.851 130.575 196.11 130.458 196.433C130.344 196.753 130.286 197.105 130.286 197.488C130.286 197.873 130.344 198.226 130.458 198.546C130.575 198.866 130.754 199.123 130.993 199.316C131.235 199.508 131.54 199.605 131.907 199.605ZM140.603 194.464L138.427 200.464H137.177L134.997 194.464H136.251L137.771 199.081H137.833L139.349 194.464H140.603ZM142.514 199.37L142.455 199.796C142.416 200.109 142.35 200.434 142.256 200.773C142.165 201.114 142.07 201.43 141.971 201.722C141.875 202.014 141.795 202.245 141.733 202.417H140.905C140.938 202.256 140.985 202.037 141.045 201.761C141.105 201.488 141.164 201.182 141.221 200.843C141.278 200.504 141.321 200.159 141.35 199.808L141.389 199.37H142.514ZM149.305 192.464V200.464H148.094V193.675H148.047L146.133 194.925V193.769L148.129 192.464H149.305ZM154.174 192.464V200.464H152.963V193.675H152.916L151.002 194.925V193.769L152.999 192.464H154.174Z" fill="white" fill-opacity="0.21"/>
<path d="M36.8359 192.113V200.113H35.7266L31.6602 194.245H31.5859V200.113H30.3789V192.113H31.4961L35.5664 197.988H35.6406V192.113H36.8359ZM40.7003 200.234C40.1378 200.234 39.6469 200.105 39.2276 199.847C38.8083 199.589 38.4828 199.228 38.2511 198.765C38.0193 198.301 37.9034 197.76 37.9034 197.14C37.9034 196.517 38.0193 195.973 38.2511 195.507C38.4828 195.041 38.8083 194.679 39.2276 194.421C39.6469 194.163 40.1378 194.034 40.7003 194.034C41.2628 194.034 41.7537 194.163 42.1729 194.421C42.5922 194.679 42.9177 195.041 43.1495 195.507C43.3813 195.973 43.4971 196.517 43.4971 197.14C43.4971 197.76 43.3813 198.301 43.1495 198.765C42.9177 199.228 42.5922 199.589 42.1729 199.847C41.7537 200.105 41.2628 200.234 40.7003 200.234ZM40.7042 199.253C41.0688 199.253 41.3708 199.157 41.6104 198.964C41.85 198.771 42.0271 198.515 42.1417 198.195C42.2589 197.874 42.3175 197.521 42.3175 197.136C42.3175 196.753 42.2589 196.402 42.1417 196.081C42.0271 195.758 41.85 195.499 41.6104 195.304C41.3708 195.109 41.0688 195.011 40.7042 195.011C40.337 195.011 40.0323 195.109 39.7901 195.304C39.5505 195.499 39.3721 195.758 39.255 196.081C39.1404 196.402 39.0831 196.753 39.0831 197.136C39.0831 197.521 39.1404 197.874 39.255 198.195C39.3721 198.515 39.5505 198.771 39.7901 198.964C40.0323 199.157 40.337 199.253 40.7042 199.253ZM49.3996 194.113L47.2238 200.113H45.9738L43.7941 194.113H45.048L46.5675 198.73H46.63L48.1457 194.113H49.3996ZM51.3108 199.019L51.2522 199.445C51.2131 199.757 51.1467 200.083 51.053 200.421C50.9618 200.762 50.8668 201.079 50.7678 201.37C50.6715 201.662 50.592 201.894 50.5295 202.066H49.7014C49.7353 201.904 49.7821 201.685 49.842 201.409C49.9019 201.136 49.9605 200.83 50.0178 200.491C50.0751 200.153 50.1181 199.808 50.1467 199.456L50.1858 199.019H51.3108ZM58.102 192.113V200.113H56.891V193.323H56.8441L54.9301 194.573V193.417L56.9262 192.113H58.102ZM62.7212 200.245C62.104 200.243 61.5766 200.08 61.1391 199.757C60.7016 199.434 60.367 198.964 60.1352 198.347C59.9035 197.73 59.7876 196.986 59.7876 196.116C59.7876 195.249 59.9035 194.508 60.1352 193.894C60.3696 193.279 60.7055 192.81 61.143 192.488C61.5832 192.165 62.1092 192.003 62.7212 192.003C63.3332 192.003 63.8579 192.166 64.2954 192.491C64.7329 192.814 65.0675 193.283 65.2993 193.898C65.5337 194.51 65.6509 195.249 65.6509 196.116C65.6509 196.989 65.535 197.734 65.3032 198.351C65.0714 198.965 64.7368 199.435 64.2993 199.761C63.8618 200.084 63.3358 200.245 62.7212 200.245ZM62.7212 199.202C63.2628 199.202 63.686 198.938 63.9907 198.409C64.298 197.881 64.4516 197.116 64.4516 196.116C64.4516 195.452 64.3813 194.891 64.2407 194.433C64.1027 193.972 63.9035 193.623 63.643 193.386C63.3852 193.146 63.0779 193.027 62.7212 193.027C62.1821 193.027 61.7589 193.292 61.4516 193.823C61.1443 194.355 60.9894 195.119 60.9868 196.116C60.9868 196.783 61.0558 197.347 61.1938 197.808C61.3345 198.266 61.5337 198.614 61.7915 198.851C62.0493 199.085 62.3592 199.202 62.7212 199.202Z" fill="white" fill-opacity="0.21"/>
<rect width="2" height="119" transform="translate(23.5 83.1875)" fill="#D6CFFD" fill-opacity="0.1"/>
<rect width="2" height="119" transform="translate(115.5 83.1875)" fill="#D6CFFD" fill-opacity="0.1"/>
<rect width="2" height="119" transform="translate(224.5 83.1875)" fill="#D6CFFD" fill-opacity="0.1"/>
<path d="M20.5 87.6875C20.5 85.2022 22.5147 83.1875 25 83.1875C27.4853 83.1875 29.5 85.2022 29.5 87.6875V176.688C29.5 179.173 27.4853 181.188 25 181.188C22.5147 181.188 20.5 179.173 20.5 176.688V87.6875Z" fill="url(#paint0_linear_0_615)"/>
<path d="M39.5 90.6875C39.5 88.2022 41.5147 86.1875 44 86.1875C46.4853 86.1875 48.5 88.2022 48.5 90.6875V176.688C48.5 179.173 46.4853 181.188 44 181.188C41.5147 181.188 39.5 179.173 39.5 176.688V90.6875Z" fill="url(#paint1_linear_0_615)"/>
<path d="M57.5 101.687C57.5 99.2022 59.5147 97.1875 62 97.1875C64.4853 97.1875 66.5 99.2022 66.5 101.688V176.688C66.5 179.173 64.4853 181.188 62 181.188C59.5147 181.188 57.5 179.173 57.5 176.688V101.687Z" fill="url(#paint2_linear_0_615)"/>
<path d="M75.5 84.6875C75.5 82.2022 77.5147 80.1875 80 80.1875C82.4853 80.1875 84.5 82.2022 84.5 84.6875V176.688C84.5 179.173 82.4853 181.188 80 181.188C77.5147 181.188 75.5 179.173 75.5 176.688V84.6875Z" fill="url(#paint3_linear_0_615)"/>
<path d="M94.5 93.6875C94.5 91.2022 96.5147 89.1875 99 89.1875C101.485 89.1875 103.5 91.2022 103.5 93.6875V175.688C103.5 178.173 101.485 180.188 99 180.188C96.5147 180.188 94.5 178.173 94.5 175.688V93.6875Z" fill="url(#paint4_linear_0_615)"/>
<path d="M112.5 95.6875C112.5 93.2022 114.515 91.1875 117 91.1875C119.485 91.1875 121.5 93.2022 121.5 95.6875V175.688C121.5 178.173 119.485 180.188 117 180.188C114.515 180.188 112.5 178.173 112.5 175.688V95.6875Z" fill="url(#paint5_linear_0_615)"/>
<path d="M130.977 141.688C130.977 139.202 132.991 137.188 135.477 137.188C137.962 137.188 139.977 139.202 139.977 141.688V176.688C139.977 179.173 137.962 181.188 135.477 181.188C132.991 181.188 130.977 179.173 130.977 176.688V141.688Z" fill="url(#paint6_linear_0_615)"/>
<path d="M148.977 148.687C148.977 146.202 150.991 144.188 153.477 144.188C155.962 144.188 157.977 146.202 157.977 148.688V176.688C157.977 179.173 155.962 181.188 153.477 181.188C150.991 181.188 148.977 179.173 148.977 176.688V148.687Z" fill="url(#paint7_linear_0_615)"/>
<path d="M167.5 140.688C167.5 138.202 169.515 136.188 172 136.188C174.485 136.188 176.5 138.202 176.5 140.688V176.688C176.5 179.173 174.485 181.188 172 181.188C169.515 181.188 167.5 179.173 167.5 176.688V140.688Z" fill="url(#paint8_linear_0_615)"/>
<path d="M185.5 141.688C185.5 139.202 187.515 137.188 190 137.188C192.485 137.188 194.5 139.202 194.5 141.688V176.688C194.5 179.173 192.485 181.188 190 181.188C187.515 181.188 185.5 179.173 185.5 176.688V141.688Z" fill="url(#paint9_linear_0_615)"/>
<path d="M203.5 148.687C203.5 146.202 205.515 144.188 208 144.188C210.485 144.188 212.5 146.202 212.5 148.688V176.688C212.5 179.173 210.485 181.188 208 181.188C205.515 181.188 203.5 179.173 203.5 176.688V148.687Z" fill="url(#paint10_linear_0_615)"/>
<path d="M221.5 151.688C221.5 149.202 223.515 147.188 226 147.188C228.485 147.188 230.5 149.202 230.5 151.688V176.688C230.5 179.173 228.485 181.188 226 181.188C223.515 181.188 221.5 179.173 221.5 176.688V151.688Z" fill="url(#paint11_linear_0_615)"/>
<path d="M239.5 164.188C239.5 161.426 241.739 159.188 244.5 159.188C247.261 159.188 249.5 161.426 249.5 164.188V176.188C249.5 178.949 247.261 181.188 244.5 181.188C241.739 181.188 239.5 178.949 239.5 176.188V164.188Z" fill="url(#paint12_linear_0_615)"/>
<path d="M0.75 38.1875C0.75 25.0707 11.3832 14.4375 24.5 14.4375H256.5C269.617 14.4375 280.25 25.0707 280.25 38.1875V201.188C280.25 214.304 269.617 224.938 256.5 224.938H24.5C11.3832 224.938 0.75 214.304 0.75 201.188V38.1875Z" stroke="white" stroke-opacity="0.06" stroke-width="0.5"/>
</g>
</g>
<defs>
<linearGradient id="paint0_linear_0_615" x1="25" y1="83.1875" x2="25" y2="181.188" gradientUnits="userSpaceOnUse">
<stop stop-color="#D6CFFD"/>
<stop offset="1" stop-color="#D6CFFD"/>
</linearGradient>
<linearGradient id="paint1_linear_0_615" x1="44" y1="86.1875" x2="44" y2="181.188" gradientUnits="userSpaceOnUse">
<stop stop-color="#D6CFFD"/>
<stop offset="1" stop-color="#D6CFFD"/>
</linearGradient>
<linearGradient id="paint2_linear_0_615" x1="62" y1="97.1875" x2="62" y2="181.188" gradientUnits="userSpaceOnUse">
<stop stop-color="#D6CFFD"/>
<stop offset="1" stop-color="#D6CFFD"/>
</linearGradient>
<linearGradient id="paint3_linear_0_615" x1="80" y1="80.1875" x2="80" y2="181.188" gradientUnits="userSpaceOnUse">
<stop stop-color="#D6CFFD"/>
<stop offset="1" stop-color="#D6CFFD"/>
</linearGradient>
<linearGradient id="paint4_linear_0_615" x1="99" y1="89.1875" x2="99" y2="180.188" gradientUnits="userSpaceOnUse">
<stop stop-color="#D6CFFD"/>
<stop offset="1" stop-color="#D6CFFD"/>
</linearGradient>
<linearGradient id="paint5_linear_0_615" x1="117" y1="91.1875" x2="117" y2="180.188" gradientUnits="userSpaceOnUse">
<stop stop-color="#D6CFFD"/>
<stop offset="1" stop-color="#D6CFFD"/>
</linearGradient>
<linearGradient id="paint6_linear_0_615" x1="135.477" y1="137.188" x2="135.477" y2="181.188" gradientUnits="userSpaceOnUse">
<stop stop-color="#D6CFFD"/>
<stop offset="1" stop-color="#D6CFFD"/>
</linearGradient>
<linearGradient id="paint7_linear_0_615" x1="153.477" y1="144.188" x2="153.477" y2="181.188" gradientUnits="userSpaceOnUse">
<stop stop-color="#D6CFFD"/>
<stop offset="1" stop-color="#D6CFFD"/>
</linearGradient>
<linearGradient id="paint8_linear_0_615" x1="172" y1="136.188" x2="172" y2="181.188" gradientUnits="userSpaceOnUse">
<stop stop-color="#D6CFFD"/>
<stop offset="1" stop-color="#D6CFFD"/>
</linearGradient>
<linearGradient id="paint9_linear_0_615" x1="190" y1="137.188" x2="190" y2="181.188" gradientUnits="userSpaceOnUse">
<stop stop-color="#D6CFFD"/>
<stop offset="1" stop-color="#D6CFFD"/>
</linearGradient>
<linearGradient id="paint10_linear_0_615" x1="208" y1="144.188" x2="208" y2="181.188" gradientUnits="userSpaceOnUse">
<stop stop-color="#D6CFFD"/>
<stop offset="1" stop-color="#D6CFFD"/>
</linearGradient>
<linearGradient id="paint11_linear_0_615" x1="226" y1="147.188" x2="226" y2="181.188" gradientUnits="userSpaceOnUse">
<stop stop-color="#D6CFFD"/>
<stop offset="1" stop-color="#D6CFFD"/>
</linearGradient>
<linearGradient id="paint12_linear_0_615" x1="244.5" y1="159.188" x2="244.5" y2="181.188" gradientUnits="userSpaceOnUse">
<stop stop-color="#D6CFFD"/>
<stop offset="1" stop-color="#D6CFFD"/>
</linearGradient>
<clipPath id="clip0_0_615">
<rect width="281" height="225" fill="white" transform="translate(0.5 0.1875)"/>
</clipPath>
<clipPath id="clip1_0_615">
<path d="M0.5 38.1875C0.5 24.9327 11.2452 14.1875 24.5 14.1875H256.5C269.755 14.1875 280.5 24.9327 280.5 38.1875V201.188C280.5 214.442 269.755 225.188 256.5 225.188H24.5C11.2452 225.188 0.5 214.442 0.5 201.188V38.1875Z" fill="white"/>
</clipPath>
<clipPath id="clip2_0_615">
<rect width="53.5156" height="21.125" fill="white" transform="translate(20.5 34.1875)"/>
</clipPath>
</defs>
</svg>
