<svg width="350" height="273" viewBox="0 0 350 273" fill="none" xmlns="http://www.w3.org/2000/svg">
<g clip-path="url(#clip0_0_696)">
<path d="M5.08398 268.298C15.3522 255.457 44.8732 231.06 60.2755 227.208C75.6778 223.356 89.7966 227.208 101.348 218.22C112.9 209.231 112.9 198.959 125.735 196.391C138.57 193.823 152.689 211.799 168.092 206.663C183.494 201.527 192.478 180.983 197.613 155.302C202.747 129.621 201.584 56.2977 251.584 56.2977C301.584 56.2977 312.084 -24.7031 312.084 -42.2031" stroke="#292929" stroke-width="4.66666"/>
</g>
<path d="M191.25 130.797C191.25 126.379 194.832 122.797 199.25 122.797C203.668 122.797 207.25 126.379 207.25 130.797C207.25 135.215 203.668 138.797 199.25 138.797C194.832 138.797 191.25 135.215 191.25 130.797Z" fill="#D6CFFD"/>
<path d="M130 123C130 77.1604 167.16 40 213 40C258.84 40 296 77.1604 296 123V131C296 176.84 258.84 214 213 214C167.16 214 130 176.84 130 131V123Z" fill="#D6CFFD" fill-opacity="0.06"/>
<path d="M175 131.5C175 117.969 185.969 107 199.5 107C213.031 107 224 117.969 224 131.5C224 145.031 213.031 156 199.5 156C185.969 156 175 145.031 175 131.5Z" fill="#D6CFFD" fill-opacity="0.15"/>
<path d="M21.3373 209.512V208.16L27.3043 198.719H28.2855V200.814H27.6225L23.1141 207.948V208.054H31.1497V209.512H21.3373ZM27.7286 212.297V209.101V208.471V198.719H29.2933V212.297H27.7286ZM37.3173 212.483C36.5394 212.483 35.8389 212.328 35.2156 212.018C34.5924 211.709 34.093 211.285 33.7173 210.745C33.3416 210.206 33.136 209.592 33.1007 208.902H34.6919C34.7537 209.517 35.0322 210.025 35.5272 210.427C36.0267 210.825 36.6234 211.024 37.3173 211.024C37.8743 211.024 38.3693 210.894 38.8025 210.633C39.24 210.372 39.5826 210.014 39.8301 209.559C40.082 209.099 40.208 208.58 40.208 208.001C40.208 207.408 40.0776 206.88 39.8168 206.416C39.5605 205.948 39.2069 205.579 38.756 205.309C38.3052 205.039 37.7903 204.902 37.2113 204.898C36.7958 204.893 36.3693 204.957 35.9317 205.09C35.4941 205.218 35.1339 205.384 34.851 205.587L33.3128 205.402L34.135 198.719H41.1892V200.177H35.514L35.0366 204.182H35.1162C35.3946 203.961 35.7438 203.777 36.1637 203.632C36.5836 203.486 37.0212 203.413 37.4765 203.413C38.3074 203.413 39.0478 203.612 39.6975 204.009C40.3517 204.403 40.8644 204.942 41.2357 205.627C41.6113 206.312 41.7992 207.095 41.7992 207.974C41.7992 208.84 41.6047 209.614 41.2158 210.295C40.8312 210.971 40.3008 211.506 39.6246 211.899C38.9483 212.288 38.1792 212.483 37.3173 212.483Z" fill="white" fill-opacity="0.08"/>
<path d="M76.2435 212.014C75.3683 212.014 74.5882 211.863 73.9031 211.563C73.2224 211.262 72.681 210.845 72.2788 210.31C71.881 209.771 71.6644 209.145 71.629 208.434H73.2998C73.3351 208.871 73.4854 209.249 73.7506 209.567C74.0158 209.881 74.3628 210.124 74.7915 210.297C75.2203 210.469 75.6954 210.555 76.217 210.555C76.8004 210.555 77.3175 210.454 77.7684 210.25C78.2192 210.047 78.5728 209.764 78.8292 209.402C79.0855 209.039 79.2137 208.619 79.2137 208.142C79.2137 207.642 79.09 207.203 78.8424 206.822C78.5949 206.438 78.2325 206.137 77.7551 205.921C77.2778 205.704 76.6943 205.596 76.0048 205.596H74.9175V204.137H76.0048C76.5441 204.137 77.017 204.04 77.4236 203.846C77.8347 203.651 78.1551 203.377 78.385 203.024C78.6192 202.67 78.7364 202.254 78.7364 201.777C78.7364 201.317 78.6347 200.917 78.4314 200.577C78.2281 200.237 77.9408 199.972 77.5695 199.781C77.2026 199.591 76.7695 199.496 76.27 199.496C75.8015 199.496 75.3595 199.583 74.944 199.755C74.533 199.923 74.197 200.168 73.9363 200.491C73.6755 200.809 73.534 201.194 73.5119 201.644H71.9208C71.9473 200.933 72.1616 200.31 72.5639 199.775C72.9661 199.236 73.4921 198.816 74.1418 198.515C74.796 198.215 75.5142 198.064 76.2965 198.064C77.1363 198.064 77.8568 198.234 78.4579 198.575C79.059 198.911 79.5209 199.355 79.8436 199.907C80.1662 200.46 80.3276 201.057 80.3276 201.698C80.3276 202.462 80.1264 203.114 79.7242 203.653C79.3264 204.193 78.785 204.566 78.0999 204.774V204.88C78.9574 205.021 79.627 205.386 80.1088 205.974C80.5905 206.557 80.8314 207.28 80.8314 208.142C80.8314 208.88 80.6303 209.543 80.2281 210.131C79.8303 210.714 79.2867 211.174 78.5971 211.51C77.9076 211.846 77.1231 212.014 76.2435 212.014ZM87.2262 212.014C86.4483 212.014 85.7477 211.859 85.1245 211.55C84.5013 211.24 84.0018 210.816 83.6261 210.277C83.2504 209.737 83.0449 209.123 83.0095 208.434H84.6007C84.6626 209.048 84.941 209.556 85.4361 209.958C85.9355 210.356 86.5322 210.555 87.2262 210.555C87.7831 210.555 88.2781 210.425 88.7113 210.164C89.1489 209.903 89.4914 209.545 89.7389 209.09C89.9909 208.63 90.1168 208.111 90.1168 207.532C90.1168 206.94 89.9865 206.411 89.7257 205.947C89.4693 205.479 89.1157 205.11 88.6649 204.84C88.214 204.571 87.6991 204.433 87.1201 204.429C86.7046 204.425 86.2781 204.489 85.8405 204.621C85.4029 204.75 85.0427 204.915 84.7598 205.119L83.2217 204.933L84.0438 198.25H91.0981V199.709H85.4228L84.9455 203.713H85.025C85.3035 203.492 85.6527 203.309 86.0726 203.163C86.4925 203.017 86.93 202.944 87.3853 202.944C88.2163 202.944 88.9566 203.143 89.6063 203.541C90.2605 203.934 90.7732 204.473 91.1445 205.158C91.5202 205.843 91.708 206.626 91.708 207.505C91.708 208.372 91.5136 209.145 91.1246 209.826C90.7401 210.502 90.2097 211.037 89.5334 211.43C88.8571 211.819 88.0881 212.014 87.2262 212.014Z" fill="white" fill-opacity="0.08"/>
<path d="M121.656 211.828V210.635L126.137 205.729C126.663 205.154 127.097 204.654 127.437 204.23C127.777 203.801 128.029 203.399 128.193 203.024C128.361 202.643 128.445 202.246 128.445 201.83C128.445 201.353 128.33 200.94 128.1 200.59C127.874 200.241 127.565 199.972 127.172 199.781C126.778 199.591 126.336 199.496 125.846 199.496C125.324 199.496 124.869 199.605 124.48 199.821C124.095 200.033 123.797 200.332 123.585 200.716C123.377 201.101 123.273 201.552 123.273 202.069H121.709C121.709 201.273 121.892 200.575 122.259 199.974C122.626 199.373 123.125 198.904 123.757 198.568C124.394 198.232 125.108 198.064 125.899 198.064C126.694 198.064 127.399 198.232 128.014 198.568C128.628 198.904 129.11 199.357 129.459 199.927C129.808 200.498 129.983 201.132 129.983 201.83C129.983 202.33 129.892 202.818 129.711 203.295C129.534 203.768 129.225 204.296 128.783 204.88C128.345 205.459 127.737 206.166 126.96 207.002L123.91 210.263V210.37H130.221V211.828H121.656ZM136.643 212.014C135.865 212.014 135.164 211.859 134.541 211.55C133.918 211.24 133.418 210.816 133.043 210.277C132.667 209.737 132.461 209.123 132.426 208.434H134.017C134.079 209.048 134.358 209.556 134.853 209.958C135.352 210.356 135.949 210.555 136.643 210.555C137.2 210.555 137.695 210.425 138.128 210.164C138.565 209.903 138.908 209.545 139.155 209.09C139.407 208.63 139.533 208.111 139.533 207.532C139.533 206.94 139.403 206.411 139.142 205.947C138.886 205.479 138.532 205.11 138.081 204.84C137.631 204.571 137.116 204.433 136.537 204.429C136.121 204.425 135.695 204.489 135.257 204.621C134.819 204.75 134.459 204.915 134.176 205.119L132.638 204.933L133.46 198.25H140.515V199.709H134.839L134.362 203.713H134.442C134.72 203.492 135.069 203.309 135.489 203.163C135.909 203.017 136.347 202.944 136.802 202.944C137.633 202.944 138.373 203.143 139.023 203.541C139.677 203.934 140.19 204.473 140.561 205.158C140.937 205.843 141.125 206.626 141.125 207.505C141.125 208.372 140.93 209.145 140.541 209.826C140.157 210.502 139.626 211.037 138.95 211.43C138.274 211.819 137.505 212.014 136.643 212.014Z" fill="white" fill-opacity="0.08"/>
<path d="M178.683 198.25V211.828H177.039V199.974H176.959L173.644 202.175V200.504L177.039 198.25H178.683ZM186.271 212.014C185.493 212.014 184.793 211.859 184.169 211.55C183.546 211.24 183.047 210.816 182.671 210.277C182.295 209.737 182.09 209.123 182.055 208.434H183.646C183.708 209.048 183.986 209.556 184.481 209.958C184.981 210.356 185.577 210.555 186.271 210.555C186.828 210.555 187.323 210.425 187.756 210.164C188.194 209.903 188.536 209.545 188.784 209.09C189.036 208.63 189.162 208.111 189.162 207.532C189.162 206.94 189.031 206.411 188.771 205.947C188.514 205.479 188.161 205.11 187.71 204.84C187.259 204.571 186.744 204.433 186.165 204.429C185.75 204.425 185.323 204.489 184.886 204.621C184.448 204.75 184.088 204.915 183.805 205.119L182.267 204.933L183.089 198.25H190.143V199.709H184.468L183.99 203.713H184.07C184.348 203.492 184.698 203.309 185.118 203.163C185.537 203.017 185.975 202.944 186.43 202.944C187.261 202.944 188.002 203.143 188.651 203.541C189.305 203.934 189.818 204.473 190.189 205.158C190.565 205.843 190.753 206.626 190.753 207.505C190.753 208.372 190.559 209.145 190.17 209.826C189.785 210.502 189.255 211.037 188.578 211.43C187.902 211.819 187.133 212.014 186.271 212.014Z" fill="white" fill-opacity="0.08"/>
<path d="M233.899 212.014C233.121 212.014 232.42 211.859 231.797 211.55C231.174 211.24 230.674 210.816 230.299 210.277C229.923 209.737 229.717 209.123 229.682 208.434H231.273C231.335 209.048 231.614 209.556 232.109 209.958C232.608 210.356 233.205 210.555 233.899 210.555C234.456 210.555 234.951 210.425 235.384 210.164C235.821 209.903 236.164 209.545 236.411 209.09C236.663 208.63 236.789 208.111 236.789 207.532C236.789 206.94 236.659 206.411 236.398 205.947C236.142 205.479 235.788 205.11 235.337 204.84C234.887 204.571 234.372 204.433 233.793 204.429C233.377 204.425 232.951 204.489 232.513 204.621C232.075 204.75 231.715 204.915 231.432 205.119L229.894 204.933L230.716 198.25H237.771V199.709H232.095L231.618 203.713H231.698C231.976 203.492 232.325 203.309 232.745 203.163C233.165 203.017 233.603 202.944 234.058 202.944C234.889 202.944 235.629 203.143 236.279 203.541C236.933 203.934 237.446 204.473 237.817 205.158C238.193 205.843 238.381 206.626 238.381 207.505C238.381 208.372 238.186 209.145 237.797 209.826C237.413 210.502 236.882 211.037 236.206 211.43C235.53 211.819 234.761 212.014 233.899 212.014Z" fill="white" fill-opacity="0.08"/>
<path d="M286.084 212.014C285.085 212.014 284.235 211.742 283.532 211.198C282.829 210.65 282.292 209.857 281.921 208.818C281.549 207.775 281.364 206.515 281.364 205.039C281.364 203.572 281.549 202.319 281.921 201.28C282.296 200.237 282.836 199.441 283.538 198.893C284.246 198.341 285.094 198.064 286.084 198.064C287.074 198.064 287.921 198.341 288.624 198.893C289.331 199.441 289.87 200.237 290.241 201.28C290.617 202.319 290.805 203.572 290.805 205.039C290.805 206.515 290.619 207.775 290.248 208.818C289.877 209.857 289.34 210.65 288.637 211.198C287.934 211.742 287.083 212.014 286.084 212.014ZM286.084 210.555C287.074 210.555 287.844 210.078 288.392 209.123C288.94 208.168 289.214 206.807 289.214 205.039C289.214 203.863 289.088 202.862 288.836 202.036C288.588 201.209 288.23 200.579 287.762 200.146C287.298 199.713 286.739 199.496 286.084 199.496C285.103 199.496 284.336 199.98 283.784 200.948C283.231 201.912 282.955 203.275 282.955 205.039C282.955 206.215 283.079 207.214 283.326 208.036C283.574 208.858 283.93 209.483 284.394 209.912C284.862 210.341 285.426 210.555 286.084 210.555Z" fill="white" fill-opacity="0.08"/>
<path d="M339.032 204.31V205.768H333.092V204.31H339.032ZM345.442 212.014C344.664 212.014 343.963 211.859 343.34 211.55C342.717 211.24 342.217 210.816 341.842 210.277C341.466 209.737 341.26 209.123 341.225 208.434H342.816C342.878 209.048 343.157 209.556 343.652 209.958C344.151 210.356 344.748 210.555 345.442 210.555C345.999 210.555 346.494 210.425 346.927 210.164C347.364 209.903 347.707 209.545 347.954 209.09C348.206 208.63 348.332 208.111 348.332 207.532C348.332 206.94 348.202 206.411 347.941 205.947C347.685 205.479 347.331 205.11 346.88 204.84C346.43 204.571 345.915 204.433 345.336 204.429C344.92 204.425 344.494 204.489 344.056 204.621C343.618 204.75 343.258 204.915 342.975 205.119L341.437 204.933L342.259 198.25H349.314V199.709H343.638L343.161 203.713H343.241C343.519 203.492 343.868 203.309 344.288 203.163C344.708 203.017 345.146 202.944 345.601 202.944C346.432 202.944 347.172 203.143 347.822 203.541C348.476 203.934 348.989 204.473 349.36 205.158C349.736 205.843 349.924 206.626 349.924 207.505C349.924 208.372 349.729 209.145 349.34 209.826C348.956 210.502 348.425 211.037 347.749 211.43C347.073 211.819 346.304 212.014 345.442 212.014Z" fill="white" fill-opacity="0.08"/>
<defs>
<clipPath id="clip0_0_696">
<rect width="314" height="317" fill="white" transform="translate(1.25 -45.2031)"/>
</clipPath>
</defs>
</svg>
