<svg width="22" height="22" viewBox="0 0 22 22" fill="none" xmlns="http://www.w3.org/2000/svg">
<g clip-path="url(#clip0_0_1425)">
<path d="M21.3672 10.6016C21.3672 4.80257 16.6662 0.101562 10.8672 0.101562C5.0682 0.101562 0.367188 4.80257 0.367188 10.6016C0.367188 16.4006 5.0682 21.1016 10.8672 21.1016C16.6662 21.1016 21.3672 16.4006 21.3672 10.6016Z" fill="#D6CFFD"/>
<mask id="mask0_0_1425" style="mask-type:luminance" maskUnits="userSpaceOnUse" x="5" y="4" width="12" height="13">
<path d="M16.6905 4.80225H5.06794V16.4248H16.6905V4.80225Z" fill="white"/>
</mask>
<g mask="url(#mask0_0_1425)">
<path d="M12.4911 6.41379C12.4911 8.49673 10.879 10.6132 10.879 10.6132C10.879 10.6132 9.26741 8.49673 9.26741 6.41379C9.27345 5.99032 9.44599 5.58625 9.74755 5.28893C10.0492 4.99162 10.4557 4.82495 10.8792 4.82495C11.3027 4.82495 11.7092 4.99162 12.0108 5.28893C12.3125 5.58625 12.4849 5.99032 12.4911 6.41379Z" fill="black"/>
<path d="M6.67959 9.00171C8.76253 9.00171 10.879 10.6133 10.879 10.6133C10.879 10.6133 8.76253 12.2254 6.67959 12.2254C6.25613 12.2192 5.85205 12.0468 5.55474 11.7451C5.25742 11.4435 5.09075 11.037 5.09075 10.6135C5.09075 10.19 5.25742 9.7835 5.55474 9.48185C5.85205 9.18029 6.25613 9.00776 6.67959 9.00171Z" fill="black"/>
<path d="M9.26732 14.8128C9.26732 12.7302 10.879 10.6133 10.879 10.6133C10.879 10.6133 12.491 12.7302 12.491 14.8128C12.4941 15.0264 12.4546 15.2385 12.375 15.4367C12.2954 15.635 12.1772 15.8154 12.0271 15.9675C11.8772 16.1197 11.6985 16.2405 11.5014 16.323C11.3043 16.4054 11.0928 16.4479 10.8792 16.4479C10.6655 16.4479 10.454 16.4054 10.2569 16.323C10.0599 16.2405 9.88111 16.1197 9.73117 15.9675C9.58115 15.8154 9.46296 15.635 9.38333 15.4367C9.3037 15.2385 9.2643 15.0264 9.26732 14.8128Z" fill="black"/>
<path d="M15.0784 12.2253C12.9959 12.2253 10.879 10.6133 10.879 10.6133C10.879 10.6133 12.9959 9.00163 15.0784 9.00163C15.2921 8.9986 15.5042 9.038 15.7024 9.11763C15.9007 9.19726 16.0812 9.31545 16.2333 9.46547C16.3854 9.61541 16.5062 9.79417 16.5887 9.99123C16.6712 10.1883 16.7136 10.3998 16.7136 10.6135C16.7136 10.8271 16.6712 11.0386 16.5887 11.2357C16.5062 11.4328 16.3854 11.6115 16.2333 11.7614C16.0812 11.9115 15.9007 12.0297 15.7024 12.1093C15.5042 12.1889 15.2921 12.2284 15.0784 12.2253Z" fill="black"/>
</g>
</g>
<defs>
<clipPath id="clip0_0_1425">
<rect width="21" height="21" fill="white" transform="translate(0.367188 0.101562)"/>
</clipPath>
</defs>
</svg>
