<svg width="14" height="9" viewBox="0 0 14 9" fill="none" xmlns="http://www.w3.org/2000/svg">
<path d="M0.305733 1.20441C0.109958 1.40052 0 1.66631 0 1.94341C0 2.22052 0.109958 2.4863 0.305733 2.68241L6.20973 8.59241C6.43773 8.82041 6.74573 8.92241 7.04373 8.89441C7.31373 8.89441 7.58273 8.79341 7.78773 8.58841L13.6947 2.68141C13.7917 2.58443 13.8686 2.4693 13.9211 2.34259C13.9736 2.21587 14.0006 2.08007 14.0006 1.94291C14.0006 1.80576 13.9736 1.66995 13.9211 1.54324C13.8686 1.41653 13.7917 1.30139 13.6947 1.20441C13.5978 1.10743 13.4826 1.0305 13.3559 0.978016C13.2292 0.92553 13.0934 0.898516 12.9562 0.898516C12.8191 0.898516 12.6833 0.92553 12.5566 0.978016C12.4298 1.0305 12.3147 1.10743 12.2177 1.20441L6.99773 6.42441L1.78173 1.20441C1.68486 1.10741 1.56982 1.03046 1.44319 0.977962C1.31656 0.925461 1.18082 0.898438 1.04373 0.898438C0.906649 0.898438 0.770909 0.925461 0.644276 0.977962C0.517644 1.03046 0.402603 1.10741 0.305733 1.20441Z" fill="black"/>
</svg>
