<svg width="86" height="86" viewBox="0 0 86 86" fill="none" xmlns="http://www.w3.org/2000/svg">
<path d="M0 42.9922C0 19.2439 19.2518 -0.0078125 43 -0.0078125C66.7482 -0.0078125 86 19.2439 86 42.9922C86 66.7404 66.7482 85.9922 43 85.9922C19.2518 85.9922 0 66.7404 0 42.9922Z" fill="#343434"/>
<path d="M9 42.9922C9 24.2145 24.2223 8.99219 43 8.99219C61.7777 8.99219 77 24.2145 77 42.9922C77 61.7699 61.7777 76.9922 43 76.9922C24.2223 76.9922 9 61.7699 9 42.9922Z" fill="#343434"/>
<path d="M11.5 42.9922C11.5 25.5952 25.603 11.4922 43 11.4922C60.397 11.4922 74.5 25.5952 74.5 42.9922C74.5 60.3892 60.397 74.4922 43 74.4922C25.603 74.4922 11.5 60.3892 11.5 42.9922Z" stroke="#1C1C1C" stroke-width="5"/>
</svg>
