<svg width="14" height="14" viewBox="0 0 14 14" fill="none" xmlns="http://www.w3.org/2000/svg">
<g clip-path="url(#clip0_0_1340)">
<g clip-path="url(#clip1_0_1340)">
<mask id="mask0_0_1340" style="mask-type:luminance" maskUnits="userSpaceOnUse" x="0" y="0" width="14" height="14">
<path d="M13.8364 0.0895996H0V13.926H13.8364V0.0895996Z" fill="white"/>
</mask>
<g mask="url(#mask0_0_1340)">
<path d="M8.83721 2.00818C8.83721 4.48785 6.91816 7.00752 6.91816 7.00752C6.91816 7.00752 4.99951 4.48785 4.99951 2.00818C5.00675 1.50404 5.2121 1.02301 5.57117 0.669064C5.93024 0.315118 6.41417 0.116699 6.91836 0.116699C7.42255 0.116699 7.90648 0.315118 8.26555 0.669064C8.62462 1.02301 8.82997 1.50404 8.83721 2.00818Z" fill="#D6CFFD"/>
<path d="M1.91883 5.08911C4.3985 5.08911 6.91816 7.00776 6.91816 7.00776C6.91816 7.00776 4.3985 8.92681 1.91883 8.92681C1.41469 8.91956 0.933654 8.71421 0.579709 8.35515C0.225763 7.99608 0.0273438 7.51215 0.0273438 7.00796C0.0273438 6.50377 0.225763 6.01983 0.579709 5.66077C0.933654 5.3017 1.41469 5.09635 1.91883 5.08911Z" fill="#D6CFFD"/>
<path d="M4.99922 12.0069C4.99922 9.52763 6.91787 7.00757 6.91787 7.00757C6.91787 7.00757 8.83692 9.52763 8.83692 12.0069C8.84057 12.2612 8.79364 12.5137 8.69885 12.7497C8.60405 12.9857 8.46329 13.2005 8.28475 13.3816C8.10621 13.5628 7.89344 13.7066 7.65882 13.8048C7.4242 13.9029 7.1724 13.9535 6.91807 13.9535C6.66374 13.9535 6.41194 13.9029 6.17732 13.8048C5.9427 13.7066 5.72993 13.5628 5.55139 13.3816C5.37285 13.2005 5.23209 12.9857 5.13729 12.7497C5.0425 12.5137 4.99557 12.2612 4.99922 12.0069Z" fill="#D6CFFD"/>
<path d="M11.9173 8.92676C9.43803 8.92676 6.91797 7.00771 6.91797 7.00771C6.91797 7.00771 9.43803 5.08906 11.9173 5.08906C12.1716 5.08541 12.4241 5.13234 12.6601 5.22714C12.8961 5.32193 13.1109 5.46269 13.2921 5.64123C13.4732 5.81977 13.617 6.03254 13.7152 6.26716C13.8134 6.50178 13.8639 6.75358 13.8639 7.00791C13.8639 7.26224 13.8134 7.51404 13.7152 7.74866C13.617 7.98328 13.4732 8.19605 13.2921 8.37459C13.1109 8.55314 12.8961 8.69389 12.6601 8.78869C12.4241 8.88348 12.1716 8.93041 11.9173 8.92676Z" fill="#D6CFFD"/>
</g>
</g>
</g>
<defs>
<clipPath id="clip0_0_1340">
<rect width="14" height="14" fill="white" transform="translate(0 0.0078125)"/>
</clipPath>
<clipPath id="clip1_0_1340">
<rect width="14" height="14" fill="white" transform="translate(0 0.0078125)"/>
</clipPath>
</defs>
</svg>
